<?xml version="1.0" standalone="no"?>
<!DOCTYPE svg PUBLIC "-//W3C//DTD SVG 1.1//EN" "http://www.w3.org/Graphics/SVG/1.1/DTD/svg11.dtd" >
<svg xmlns="http://www.w3.org/2000/svg">
<metadata>
This is a custom SVG webfont generated by Font Squirrel.
Copyright   : 1993 Erik Spiekermann
</metadata>
<defs>
<font id="webfontPv7wEeKB" horiz-adv-x="1095" >
<font-face units-per-em="2048" ascent="1638" descent="-410" />
<missing-glyph horiz-adv-x="460" />
<glyph unicode=" "  horiz-adv-x="460" />
<glyph unicode="&#x09;" horiz-adv-x="460" />
<glyph unicode="&#xa0;" horiz-adv-x="460" />
<glyph unicode="!" horiz-adv-x="544" d="M313 406h-123l175 999l206 27zM193 -14q-51 0 -88 36.5t-37 90.5q0 53 35.5 89t89.5 36q53 0 88.5 -36t35.5 -87q0 -55 -34.5 -92t-89.5 -37z" />
<glyph unicode="&#x22;" horiz-adv-x="1062" d="M858 958h-147l104 492h148zM557 958h-147l104 492h148z" />
<glyph unicode="#" horiz-adv-x="1138" d="M1178 883h-234l-108 -312h184v-135h-236l-153 -436h-137l153 436h-258l-153 -436h-138l154 436h-186v135h237l107 312h-187v135h236l153 432h138l-154 -432h258l154 432h137l-154 -432h187v-135zM549 883l-109 -312h258l109 312h-258z" />
<glyph unicode="$" horiz-adv-x="1134" d="M1059 1190q-129 96 -262 106l-107 -497l68 -29q127 -53 179 -136t52 -216q0 -170 -127 -292t-348 -146l-41 -199h-121l41 192q-203 0 -368 111l81 133q76 -53 150 -79.5t166 -26.5l121 565l-51 20q-127 53 -183.5 130t-56.5 202q0 164 127 276.5t326 129.5l36 170h121 l-37 -170q86 0 169 -33t153 -86zM428 1063q0 -82 32 -127t120 -88l96 444q-113 -16 -180.5 -78.5t-67.5 -150.5zM653 627l-108 -508q125 25 196.5 98.5t71.5 175.5q0 82 -35 136.5t-125 97.5z" />
<glyph unicode="%" horiz-adv-x="1701" d="M449 719q-123 0 -194 63.5t-71 190.5q0 188 117 317t295 129q129 0 198.5 -67.5t69.5 -177.5q0 -205 -116.5 -330t-298.5 -125zM485 0h-135l985 1405h135zM1206 -20q-123 0 -193.5 63t-70.5 190q0 188 117 317.5t295 129.5q129 0 198.5 -67.5t69.5 -178.5 q0 -205 -117 -329.5t-299 -124.5zM569 1307q-121 0 -182 -91.5t-61 -238.5q0 -78 38.5 -112t114.5 -34q117 0 181.5 90.5t64.5 233.5q0 152 -156 152zM1327 567q-121 0 -182.5 -91t-61.5 -238q0 -78 39 -112t115 -34q117 0 181.5 90t64.5 234q0 151 -156 151z" />
<glyph unicode="&#x26;" horiz-adv-x="1427" d="M1042 0l-108 133q-76 -74 -192.5 -119t-239.5 -45q-190 0 -299 82t-109 228q0 129 78 234t289 192q-74 80 -100.5 140t-26.5 128q0 147 120.5 258.5t313.5 111.5q143 0 229 -69.5t86 -179.5q0 -211 -239 -336l-135 -70l258 -323q35 41 61.5 136t46.5 181h142 q-29 -147 -68 -243.5t-102 -184.5l206 -254h-211zM745 1225q-82 0 -158.5 -55.5t-76.5 -139.5q0 -80 19.5 -119t101.5 -131q82 35 142.5 76t86 77t38.5 71.5t13 74.5q0 68 -45 107t-121 39zM543 618q-143 -61 -207 -132.5t-64 -180.5q0 -90 68 -150.5t188 -60.5 q98 0 190.5 38t147.5 93z" />
<glyph unicode="'" horiz-adv-x="569" d="M461 958h-148l105 492h147z" />
<glyph unicode="(" horiz-adv-x="696" d="M594 1219q-63 -96 -112.5 -227.5t-83 -287t-47 -260t-13.5 -194.5q0 -172 50 -288t167 -193l-59 -86q-147 74 -231.5 220t-84.5 351q0 92 13.5 199.5t50.5 286t117.5 339t177 257t187.5 154.5t173 87l31 -92q-125 -63 -205 -125.5t-131 -140.5z" />
<glyph unicode=")" horiz-adv-x="696" d="M496 606q-55 -260 -136 -420.5t-177.5 -257t-187.5 -155t-173 -86.5l-31 100q125 63 205 125.5t137 150t106.5 218.5t83 286.5t47 260t13.5 194.5q0 172 -50 287.5t-167 193.5l59 78q147 -74 231.5 -220.5t84.5 -350.5q0 -92 -13.5 -200t-31.5 -204z" />
<glyph unicode="*" horiz-adv-x="909" d="M686 1026l182 -244l-100 -77l-184 251l-178 -251l-103 77l178 244l-288 98l38 119l291 -98v305h123v-305l291 98l39 -119z" />
<glyph unicode="+" horiz-adv-x="1024" d="M940 438h-358l-78 -364h-156l78 364h-363l33 148h361l78 364h155l-78 -364h361z" />
<glyph unicode="," horiz-adv-x="546" d="M221 -162q-41 -41 -95 -75.5t-99 -55.5l-54 90q68 29 112 76t65 107q-45 0 -76 36.5t-31 89.5q0 68 43 109t111 41q61 0 103 -43t42 -111q0 -139 -121 -264z" />
<glyph unicode="-" horiz-adv-x="618" d="M506 469h-391l32 156h392z" />
<glyph unicode="." horiz-adv-x="544" d="M195 -27q-59 0 -98.5 41t-39.5 101q0 57 39 96t97 39q57 0 98 -39t41 -96t-40 -99.5t-97 -42.5z" />
<glyph unicode="/" horiz-adv-x="546" d="M72 -303h-135l923 1853h135z" />
<glyph unicode="0" d="M442 -35q-360 0 -360 361q0 145 56.5 303.5t178 285.5t353.5 127q178 0 272 -98t94 -272q0 -154 -63.5 -316.5t-189.5 -276.5t-341 -114zM641 909q-143 0 -223 -79.5t-124 -226t-44 -271.5q0 -233 225 -234q135 0 219 78t128 212t44 290q0 231 -225 231z" />
<glyph unicode="1" horiz-adv-x="827" d="M500 129h188l-29 -129h-538l29 129h188l151 715q-72 -41 -154.5 -82t-146.5 -66l-22 105l401 237h125z" />
<glyph unicode="2" d="M825 508q-147 -129 -346 -252l-213 -133q27 0 114 4t99 4h418l-61 -131h-783l29 129q2 0 137 92l290 205q155 113 198 160t64.5 89t21.5 87q0 160 -183 160q-137 0 -346 -146l-53 94q137 100 246.5 145.5t222.5 45.5q139 0 225 -69.5t86 -184.5q0 -72 -43 -151.5 t-123 -147.5z" />
<glyph unicode="3" d="M883 150q0 -215 -216 -369t-589 -154h-31q-27 0 -70 6l-14 117q20 -4 50 -4t55 -2q141 0 266 27.5t201.5 87t123 138.5t46.5 153q0 72 -34 126t-84 69t-95.5 19.5t-159.5 4.5h-21l25 114h18h41q104 0 148.5 3t106 27t104.5 97.5t43 145.5q0 80 -53.5 123t-149.5 43 q-72 0 -162 -33t-188 -94l-56 90q119 84 234 127t229 43q145 0 234.5 -77t89.5 -194q0 -125 -89 -228t-229 -138q106 -20 166 -96t60 -172z" />
<glyph unicode="4" d="M920 8h-113l-55 2l-11 -59l-63 -303l-168 -47l70 327l18 82l-82 -2h-528l26 127l668 922h178l-553 -766l-67 -89l-58 -73q16 2 43 4t37 2h363l14 60l47 184l82 287l135 39l-88 -412l-37 -160l70 4h100z" />
<glyph unicode="5" d="M903 885h-442l-121 -398q51 6 78.5 8.5t68.5 2.5q158 0 255.5 -89.5t97.5 -234.5v-51q-6 -25 -31 -139.5t-223.5 -238.5t-450.5 -124q-76 0 -145 21l-4 122q57 -29 147 -28q190 0 339 97t168 183t21.5 107.5t2.5 38.5q0 98 -68 155.5t-188 57.5q-74 0 -147 -12.5 t-124 -32.5l213 690h606z" />
<glyph unicode="6" d="M506 965q-45 -53 -81 -110.5t-73 -141.5q68 53 144.5 79.5t177.5 26.5q135 0 232.5 -93t97.5 -243q0 -227 -155 -370.5t-378 -143.5q-172 0 -274.5 114t-102.5 298q0 182 81 360.5t234.5 322.5t306 226t331.5 131l20 -116q-174 -51 -322.5 -141t-238.5 -199zM614 696 q-139 0 -299 -108q-25 -72 -34 -122t-9 -101q0 -119 61.5 -195t164.5 -76q143 0 232 101.5t89 275.5q0 115 -55.5 170t-149.5 55z" />
<glyph unicode="7" d="M1049 858q-2 0 -100 -116l-199 -245q-102 -130 -180 -244t-176.5 -288t-143.5 -293l-207 -51q41 119 91 217.5t127 218t192.5 283.5t236.5 309.5t221 233.5l-190 -4h-541l60 135h831z" />
<glyph unicode="8" d="M831 670q72 -35 115 -104.5t43 -149.5q0 -180 -149.5 -315.5t-382.5 -135.5q-188 0 -295 88t-107 236q0 156 101.5 259t271.5 163q-92 47 -136 111.5t-44 142.5q0 174 137 285.5t367 111.5q158 0 248 -74t90 -184q0 -125 -90.5 -219t-264.5 -166zM711 1245 q-137 0 -219 -63.5t-82 -182.5q0 -76 45 -122t178 -107q170 74 233.5 152.5t63.5 169.5q0 72 -59.5 112.5t-159.5 40.5zM530 657q-139 -49 -224 -143t-85 -219q0 -94 65.5 -151.5t186.5 -57.5q166 0 258 86t92 211q0 80 -49 129t-244 145z" />
<glyph unicode="9" d="M702 -61q-150 -141 -341 -235.5t-377 -125.5l-64 103q281 53 510 217.5t313 371.5q-68 -53 -144.5 -79.5t-176.5 -26.5q-131 0 -225.5 104.5t-94.5 257.5q0 227 157 376t378 149q172 0 274.5 -114t102.5 -298q0 -186 -78 -369.5t-234 -330.5zM610 926q-141 0 -232 -107.5 t-91 -279.5q0 -119 51 -185.5t143 -66.5q139 0 299 108q55 154 56 260q0 119 -62 195t-164 76z" />
<glyph unicode=":" horiz-adv-x="618" d="M371 621q-59 0 -98.5 40.5t-39.5 100.5q0 57 39 96t97 39q57 0 98 -39t41 -96t-40 -99t-97 -42zM233 -27q-59 0 -98 41t-39 101q0 57 39 96t96 39t98.5 -39t41.5 -96t-40.5 -99.5t-97.5 -42.5z" />
<glyph unicode=";" horiz-adv-x="620" d="M360 621q-59 0 -98 40.5t-39 100.5q0 57 39 96t96 39t98.5 -39t41.5 -96t-40.5 -99t-97.5 -42zM264 -162q-35 -37 -89 -72.5t-105 -58.5l-54 90q68 29 112 76t65 107q-45 0 -76 36.5t-31 89.5q0 68 43 109t111 41q61 0 103 -43t42 -111q0 -66 -32 -138.5t-89 -125.5z" />
<glyph unicode="&#x3c;" horiz-adv-x="2338" d="M1333 662q41 0 70 -29t29 -70q0 -43 -27 -71.5t-70 -28.5q-41 0 -69.5 28.5t-28.5 69.5q0 43 26.5 72t69.5 29zM2222 662q41 0 69.5 -29t28.5 -70q0 -43 -26.5 -71.5t-69.5 -28.5q-41 0 -69.5 28.5t-28.5 69.5q0 43 26.5 72t69.5 29zM1925 662q41 0 70.5 -28t29.5 -71 q0 -41 -27.5 -70.5t-70.5 -29.5q-41 0 -69.5 28.5t-28.5 69.5q0 43 26.5 72t69.5 29zM1630 662q41 0 70 -29t29 -70q0 -43 -27 -71.5t-70 -28.5q-41 0 -69.5 28.5t-28.5 69.5q0 43 26.5 72t69.5 29zM594 1151q41 0 69.5 -28.5t28.5 -71.5t-26.5 -72t-69.5 -29 q-41 0 -69.5 29t-28.5 72t26.5 71.5t69.5 28.5zM813 1393q43 0 71.5 -29t28.5 -72t-26.5 -71.5t-69.5 -28.5q-41 0 -69.5 28.5t-28.5 71.5t26.5 72t67.5 29zM373 909q41 0 69.5 -28.5t28.5 -71.5t-26.5 -71.5t-69.5 -28.5q-41 0 -70 28.5t-29 71.5t27 71.5t70 28.5zM152 668 q41 0 69.5 -29t28.5 -72t-26.5 -71.5t-69.5 -28.5q-41 0 -70 28.5t-29 71.5t27 72t70 29zM444 662q41 0 70 -29t29 -70q0 -43 -27 -71.5t-70 -28.5q-41 0 -69.5 28.5t-28.5 69.5q0 43 26.5 72t69.5 29zM1036 662q41 0 71 -28t30 -71q0 -41 -28 -70.5t-71 -29.5 q-41 0 -69.5 28.5t-28.5 69.5q0 43 26.5 72t69.5 29zM741 662q41 0 70 -29t29 -70q0 -43 -27 -71.5t-70 -28.5q-41 0 -69.5 28.5t-28.5 69.5q0 43 26.5 72t69.5 29zM389 -16q-41 0 -68.5 29.5t-27.5 70.5t28.5 69.5t69.5 28.5q39 0 67.5 -28.5t28.5 -69.5t-27.5 -70.5 t-70.5 -29.5zM506 -258q-39 0 -66.5 29.5t-27.5 70.5t28.5 70t69.5 29q39 0 67.5 -29t28.5 -70q0 -43 -28.5 -71.5t-71.5 -28.5zM270 225q-41 0 -68.5 30t-27.5 71t27.5 70.5t70.5 29.5q41 0 69 -29.5t28 -70.5t-28 -71t-71 -30z" />
<glyph unicode="=" horiz-adv-x="1363" d="M1266 713h-1069l28 135h1069zM1198 393h-1069l29 135h1069z" />
<glyph unicode="&#x3e;" horiz-adv-x="2338" d="M1040 662q41 0 69 -30t28 -71t-29 -69.5t-70 -28.5t-68.5 29.5t-27.5 70.5t28.5 70t69.5 29zM152 662q41 0 68.5 -30t27.5 -71t-29 -69.5t-69 -28.5q-41 0 -69 29.5t-28 70.5t29 70t70 29zM449 662q41 0 68.5 -30t27.5 -71t-29 -69.5t-70 -28.5t-69.5 28.5t-28.5 71.5 q0 41 29 70t72 29zM743 662q41 0 69 -30t28 -71t-29 -69.5t-70 -28.5t-68.5 29.5t-27.5 70.5t28.5 70t69.5 29zM1985 1151q41 0 68.5 -29.5t27.5 -70.5t-28 -71t-71 -30q-41 0 -68.5 30t-27.5 71t28 70.5t71 29.5zM1866 1393q41 0 68.5 -30t27.5 -71t-27.5 -70.5 t-70.5 -29.5q-41 0 -69 29.5t-28 70.5t28 71t71 30zM2103 909q41 0 69 -29.5t28 -70.5t-28 -70.5t-71 -29.5q-41 0 -68.5 29.5t-27.5 70.5t27.5 70.5t70.5 29.5zM2222 668q41 0 68.5 -30t27.5 -71t-27.5 -70.5t-70.5 -29.5q-41 0 -68.5 29.5t-27.5 70.5t27.5 71t70.5 30z M1929 662q41 0 68.5 -30t27.5 -71t-28.5 -69.5t-69.5 -28.5t-68.5 29.5t-27.5 70.5t28.5 70t69.5 29zM1337 662q41 0 69 -30t28 -71t-29 -69.5t-70 -28.5t-69.5 28.5t-28.5 71.5q0 41 28.5 70t71.5 29zM1632 662q41 0 69 -30t28 -71t-29 -69.5t-70 -28.5t-68.5 29.5 t-27.5 70.5t28.5 70t69.5 29zM1780 -16q-41 0 -70 28.5t-29 71.5t28 70.5t69 27.5t69.5 -28.5t28.5 -69.5q0 -43 -26.5 -71.5t-69.5 -28.5zM1559 -258q-41 0 -70 28.5t-29 71.5t28 71t68 28q41 0 70 -29t29 -70q0 -43 -26.5 -71.5t-69.5 -28.5zM2001 225q-41 0 -69.5 29 t-28.5 72t26.5 71.5t69.5 28.5q41 0 69.5 -28.5t28.5 -71.5t-26.5 -72t-69.5 -29z" />
<glyph unicode="?" horiz-adv-x="731" d="M655 815q-113 -74 -156.5 -157t-43.5 -203h-138q0 147 50.5 255.5t169 182.5t162.5 128t44 109q0 154 -165 154q-131 0 -285 -94l-53 108q186 125 370 125q150 0 225.5 -67.5t75.5 -186.5q0 -90 -63.5 -179t-192.5 -175zM328 -18q-51 0 -88 36.5t-37 90.5q0 53 35.5 88.5 t89.5 35.5q53 0 89 -35.5t36 -86.5q0 -55 -35 -92t-90 -37z" />
<glyph unicode="@" horiz-adv-x="1638" d="M1106 268q-57 0 -94 34t-37 101q-59 -66 -118.5 -100.5t-141.5 -34.5q-127 0 -208 91.5t-81 226.5q0 227 134 403t343 176q76 0 135.5 -40t91.5 -128l41 129h134l-172 -579q-10 -37 -14.5 -58.5t-4.5 -44.5q0 -41 49 -41q102 0 194.5 139.5t92.5 307.5q0 231 -167 378.5 t-390 147.5q-264 0 -447.5 -191.5t-183.5 -459.5q0 -272 187.5 -461.5t443.5 -189.5q152 0 293 67.5t225 180.5h129q-100 -166 -273 -262.5t-374 -96.5q-334 0 -550 218t-216 544q0 319 225.5 540.5t542.5 221.5q285 0 487.5 -178.5t202.5 -448.5q0 -248 -158.5 -420 t-320.5 -172zM903 1030q-135 0 -231.5 -141t-96.5 -289q0 -86 49.5 -141.5t127.5 -55.5q125 0 221 147.5t96 287.5q0 80 -49 136t-117 56z" />
<glyph unicode="A" horiz-adv-x="1169" d="M877 0l-41 432h-525l-227 -432h-178l768 1405h219l166 -1405h-182zM750 1262l-88 -175l-277 -518h436z" />
<glyph unicode="B" horiz-adv-x="1208" d="M858 743q121 -23 180.5 -102.5t59.5 -196.5q0 -92 -46 -176t-130 -152.5t-184.5 -92t-288.5 -23.5h-363l299 1405h363q238 0 334 -81t96 -226q-1 -271 -320 -355zM735 1264h-219l-98 -463h254q74 0 128 15t121.5 68.5t67.5 184.5q0 96 -58.5 145.5t-195.5 49.5zM637 662 h-248l-113 -525h277q88 0 148.5 18.5t106.5 55.5t75.5 98.5t29.5 132.5q0 106 -60 163t-216 57z" />
<glyph unicode="C" horiz-adv-x="1097" d="M1114 1202q-100 86 -248 86q-248 0 -363.5 -180t-159.5 -333.5t-44 -297.5q0 -168 85 -263t247 -95q145 0 293 90l65 -117q-201 -115 -416 -115q-211 0 -329.5 136.5t-118.5 371.5q0 184 65.5 374t177 313.5t247 187t270.5 63.5q96 0 179 -30.5t144 -85.5z" />
<glyph unicode="D" horiz-adv-x="1280" d="M936 170q-98 -90 -213 -130t-270 -40h-367l299 1405h301q162 0 246 -21.5t191.5 -113.5t107.5 -383q0 -180 -88 -395.5t-207 -321.5zM993 1141q-49 78 -113.5 102.5t-187.5 24.5h-168l-239 -1129h149q147 0 244.5 34t177.5 133.5t136.5 266t56.5 293.5q0 96 -12.5 162 t-43.5 113z" />
<glyph unicode="E" horiz-adv-x="1050" d="M385 1405h768l-53 -139h-576l-96 -461h481l-32 -146h-482l-108 -514h618l-31 -145h-788z" />
<glyph unicode="F" horiz-adv-x="919" d="M385 1405h739l-57 -139h-543l-96 -461h451l-31 -137h-451l-141 -668h-170z" />
<glyph unicode="G" horiz-adv-x="1243" d="M1161 1182q-68 53 -137.5 76.5t-153.5 23.5q-217 0 -329.5 -139t-171 -322.5t-58.5 -347.5q0 -172 94.5 -266t249.5 -94q133 0 236 55l90 428h-283v139h471l-139 -655q-186 -106 -420 -107q-223 0 -352 140.5t-129 361.5q0 209 75 408.5t241.5 366.5t449.5 167 q217 0 350 -131z" />
<glyph unicode="H" horiz-adv-x="1284" d="M1010 0h-168l145 680h-592l-145 -680h-164l299 1405h164l-125 -588h592l125 588h168z" />
<glyph unicode="I" horiz-adv-x="548" d="M250 0h-164l299 1405h164z" />
<glyph unicode="J" horiz-adv-x="546" d="M315 240q-41 -219 -129 -333t-266 -169l-59 104q131 49 178 111.5t65.5 117t42.5 165.5l248 1169h168z" />
<glyph unicode="K" horiz-adv-x="1169" d="M594 731l405 -706l-176 -56l-422 774l729 707l127 -92zM236 0h-170l299 1405h170z" />
<glyph unicode="L" horiz-adv-x="952" d="M786 0h-700l299 1405h168l-268 -1264h555z" />
<glyph unicode="M" horiz-adv-x="1636" d="M1397 0h-168l137 1030q8 61 18.5 122.5t22.5 117.5q-47 -115 -102 -221l-525 -1049h-143l-66 997q0 53 -6 139.5t-6 135.5l-74 -273l-290 -999h-162l422 1405h245l62 -918v-120q0 -61 2 -125q41 100 62 147l38 82l463 934h248z" />
<glyph unicode="N" horiz-adv-x="1310" d="M385 1405h195l276 -897q25 -80 40 -158l28 -137l28 190q16 106 45 238l156 764h166l-299 -1405h-176l-269 860q-31 98 -52 187l-36 151l-22 -165q-12 -89 -39 -218l-166 -815h-174z" />
<glyph unicode="O" horiz-adv-x="1353" d="M981 100q-90 -70 -183 -98.5t-223 -28.5q-215 0 -326.5 132.5t-111.5 365.5q0 225 77 437t185.5 322.5t217 155t262.5 44.5q209 0 324.5 -124t115.5 -352q0 -262 -87 -495.5t-251 -358.5zM850 1294q-109 0 -194 -42t-157.5 -141t-124.5 -282.5t-52 -396.5 q0 -168 74.5 -249t215.5 -81q170 0 278.5 110t177.5 335t69 424q0 154 -70 238.5t-217 84.5z" />
<glyph unicode="P" horiz-adv-x="1171" d="M981 662q-127 -102 -367 -103h-245l-119 -559h-164l299 1405h365q227 0 327.5 -91t100.5 -235q0 -129 -46.5 -232t-150.5 -185zM696 1264h-178l-121 -568h236q92 0 140 16.5t103.5 66.5t87 120t31.5 141q0 113 -68.5 168.5t-230.5 55.5z" />
<glyph unicode="Q" horiz-adv-x="1353" d="M979 100q-37 -29 -75 -50t-81 -40q39 -14 82 -36.5t79 -46t94.5 -42t115.5 -18.5q35 0 51.5 2t34.5 8l-49 -110q-45 -20 -125 -21q-49 0 -124 29.5t-160 82t-139 78t-120 37.5q-209 0 -318.5 132.5t-109.5 365.5q0 229 74 435t185.5 320.5t220 159t262.5 44.5 q209 0 324.5 -124t115.5 -352q0 -262 -87 -495.5t-251 -358.5zM848 1294q-109 0 -194 -42t-155.5 -137t-125 -302t-54.5 -381q0 -168 75 -249t216 -81q170 0 278.5 110t177.5 335t69 424q0 154 -70 238.5t-217 84.5z" />
<glyph unicode="R" horiz-adv-x="1169" d="M668 633h-21q51 -51 105.5 -131t96.5 -165t79 -173t53 -139l-147 -50q-33 82 -66 153l-68 144q-35 74 -72.5 141.5t-80.5 127t-76 76t-84 16.5l-135 -633h-168l299 1405h307q231 0 335.5 -78t104.5 -250q0 -195 -134.5 -319.5t-327.5 -124.5zM684 1264h-162l-110 -527 h149q96 0 158.5 15.5t114 57.5t85 103.5t33.5 133.5q0 115 -63.5 166t-204.5 51z" />
<glyph unicode="S" horiz-adv-x="1134" d="M1059 1190q-82 59 -150.5 83.5t-158.5 24.5q-141 0 -229.5 -65.5t-88.5 -169.5q0 -88 36 -134t142 -93l148 -64q125 -53 178 -138t53 -216q0 -190 -156.5 -317.5t-420.5 -127.5q-219 0 -387 111l81 133q78 -55 156 -80.5t180 -25.5q168 0 267.5 78.5t99.5 203.5 q0 90 -39 144.5t-152 101.5l-126 53q-125 53 -182.5 132t-57.5 204q0 178 147.5 293t370.5 115q219 0 377 -121z" />
<glyph unicode="T" horiz-adv-x="1026" d="M1133 1264h-381l-269 -1264h-161l268 1264h-377l31 141h930z" />
<glyph unicode="U" horiz-adv-x="1247" d="M1102 428q-33 -154 -67 -224.5t-108.5 -124.5t-166.5 -79t-209 -25q-182 0 -287.5 74t-105.5 227q0 63 3 96.5t15 90.5l201 942h166l-191 -899q-16 -78 -23 -130t-7 -85q0 -82 63.5 -127t183.5 -45q182 0 243.5 64.5t84.5 114.5t43 148l203 959h166z" />
<glyph unicode="V" horiz-adv-x="1173" d="M557 0h-166l-174 1405h174l107 -901q6 -55 10 -144.5t4 -169.5l60 125l87 168l498 922h180z" />
<glyph unicode="W" horiz-adv-x="1675" d="M1212 0h-219l-8 780q0 74 6 207t6 193l-78 -202l-77 -185l-340 -793h-217l-33 1405h172l4 -821q0 -94 -8 -250t-8 -178q70 180 168 407l364 842h191l8 -815v-189v-36v-31v-25v-24q0 -27 -1 -57.5t-7 -71.5q31 86 74 195l100 239l348 815h176z" />
<glyph unicode="X" horiz-adv-x="1099" d="M688 733l295 -733h-192l-228 604l-446 -604h-205l590 754l-248 651h186l183 -510l370 510h205z" />
<glyph unicode="Y" horiz-adv-x="1099" d="M635 547l-117 -547h-174l119 557l-273 848h199l152 -537q10 -33 21 -79t18 -78l108 157l385 537h201z" />
<glyph unicode="Z" horiz-adv-x="991" d="M315 276l-114 -135l121 2h557l-54 -143h-837v129l821 1001l57 69q29 34 62 67l-146 -2h-524l57 141h803v-133z" />
<glyph unicode="[" horiz-adv-x="530" d="M586 1376h-191l-334 -1573h191l-27 -122h-338l387 1818h338z" />
<glyph unicode="\" horiz-adv-x="757" d="M500 -80l-283 1577l143 29l283 -1573z" />
<glyph unicode="]" horiz-adv-x="530" d="M303 -319h-338l27 122h190l334 1573h-190l26 123h338z" />
<glyph unicode="^" horiz-adv-x="1363" d="M1067 563l-215 715l-518 -715h-152l645 887h123l269 -887h-152z" />
<glyph unicode="_" horiz-adv-x="1024" d="M868 -256h-1024l21 102h1024z" />
<glyph unicode="`" horiz-adv-x="692" d="M717 1157l-457 205l88 158l422 -267z" />
<glyph unicode="a" horiz-adv-x="1038" d="M930 752l-88 -422q-18 -92 -19 -142q0 -43 13.5 -71.5t40.5 -57.5l-127 -98q-45 47 -60.5 94t-15.5 129q-53 -94 -145.5 -148t-209.5 -54q-102 0 -172.5 81.5t-70.5 241.5q0 156 56 312.5t190.5 294t373.5 137.5q168 0 287 -84zM682 920q-94 0 -161.5 -34t-137.5 -117 t-105.5 -210t-35.5 -256q0 -100 35.5 -142t111.5 -42q82 0 165 66.5t140 179.5l111 526q-47 29 -123 29z" />
<glyph unicode="b" horiz-adv-x="1134" d="M807 109q-139 -133 -330 -134q-109 0 -212 29t-181 96l22 88l17 66l186 879q20 100 21 200q0 68 -13 111l170 65q14 -45 15 -120q0 -100 -29 -234l-29 -137q-4 -25 -21 -89.5t-28 -99.5q66 92 168.5 152.5t204.5 60.5q137 0 206.5 -88t69.5 -247q0 -180 -64 -337 t-173 -261zM702 897q-80 0 -163.5 -58.5t-171.5 -170.5l-105 -496q72 -61 215 -61q55 0 120 30.5t121 94t103 206t47 263.5q0 94 -41 143t-125 49z" />
<glyph unicode="c" horiz-adv-x="878" d="M823 836q-45 39 -96 55t-111 16q-59 0 -117.5 -29.5t-106.5 -95t-92 -203t-44 -253.5q0 -221 193 -222q127 0 243 111l66 -102q-162 -135 -340 -136q-334 0 -334 347q0 168 79 345t201.5 277.5t286.5 100.5q150 0 248 -86z" />
<glyph unicode="d" horiz-adv-x="1134" d="M907 330q-18 -92 -18 -140q0 -68 51 -131l-137 -102q-41 41 -58.5 89t-17.5 130q-145 -190 -358 -190q-143 0 -214 87t-71 255q0 156 59.5 305t148.5 240.5t187.5 129t186.5 37.5t135 -8t90 -31l104 494l156 -27zM662 907q-61 0 -130 -31.5t-126.5 -92t-104.5 -204 t-47 -260.5q0 -199 149 -198q96 0 187.5 59.5t163.5 184.5l104 499q-45 23 -87.5 33t-108.5 10z" />
<glyph unicode="e" horiz-adv-x="1024" d="M854 571q-125 -117 -440 -116l-127 4q-14 -66 -15 -129q0 -104 57.5 -161.5t145.5 -57.5q98 0 161.5 24.5t137.5 91.5l68 -98q-80 -80 -172 -116t-242 -36q-145 0 -239.5 98.5t-94.5 270.5q0 156 57.5 307.5t188.5 273.5t315 122q143 0 218 -71t75 -194q0 -66 -23.5 -118 t-70.5 -95zM631 922q-100 0 -189.5 -93.5t-128.5 -248.5l105 -2q135 0 204.5 18t102.5 51t47 64.5t14 68.5q0 63 -36.5 102.5t-118.5 39.5z" />
<glyph unicode="f" horiz-adv-x="587" d="M819 1311q-70 47 -151 47q-137 0 -176 -180l-29 -158h282l-71 -121h-234l-184 -928q-51 -262 -158 -397l-131 72q47 66 79 146.5t54 193.5l179 913h-105l23 121h104l27 137q39 199 136 262.5t214 63.5q125 0 201 -51z" />
<glyph unicode="g" horiz-adv-x="1134" d="M1010 741l-97 -460q-2 -12 -24.5 -128t-55 -249t-155.5 -227.5t-350 -94.5q-176 0 -359 92l60 129q150 -86 313 -86q158 0 236.5 53.5t113.5 200.5l43 187q-74 -96 -157.5 -136t-200.5 -40q-129 0 -204 91t-75 253q0 164 66.5 319.5t204 280.5t360.5 125 q113 0 187.5 -20.5t152.5 -69.5q-30 -81 -59 -220zM715 909q-80 0 -141.5 -23.5t-128 -86t-121 -208t-54.5 -261.5q0 -111 42 -161t124 -50q92 0 177 58.5t163 187.5l109 514q-64 30 -170 30z" />
<glyph unicode="h" horiz-adv-x="1103" d="M997 731l-155 -731h-158l145 688q4 16 10.5 55t6.5 50q0 111 -111 110q-74 0 -177 -65.5t-187 -169.5l-142 -668h-159l239 1126q25 117 25 205q0 27 -4 55.5t-11 57.5l170 65q14 -45 15 -118q0 -111 -35 -267l-23 -106l-51 -191q84 106 194.5 160.5t209.5 54.5 q98 0 156.5 -54t58.5 -136q-1 -45 -17 -121z" />
<glyph unicode="i" horiz-adv-x="509" d="M434 1210q-53 0 -89 36t-36 87q0 53 35 90t90 37q53 0 89 -35.5t36 -89.5q0 -53 -36 -89t-89 -36zM233 0h-170l218 1016l174 26z" />
<glyph unicode="j" horiz-adv-x="512" d="M438 1227q-53 0 -90 34.5t-37 88.5q0 53 36 91t91 38q51 0 88 -37t37 -88q0 -53 -35 -90t-90 -37zM240 27q-41 -190 -115 -284.5t-215 -148.5l-57 107q104 45 148 109.5t79 224.5l207 977l170 32z" />
<glyph unicode="k" horiz-adv-x="1024" d="M477 1169l-250 -1169h-159l241 1135q23 106 23 198q0 70 -15 111l170 65q14 -51 15 -123q0 -102 -25 -217zM543 575l346 -542l-158 -64l-371 621l525 473l112 -92z" />
<glyph unicode="l" horiz-adv-x="509" d="M473 1137l-194 -912q-10 -47 -11 -73q0 -49 43 -50q29 0 39 4l10 -104q-31 -14 -58.5 -18t-65.5 -4q-135 0 -136 120q0 33 11 88l200 949q20 104 21 190q0 70 -13 117l170 65q14 -43 15 -118q0 -53 -5.5 -106.5t-25.5 -147.5z" />
<glyph unicode="m" horiz-adv-x="1613" d="M1499 729l-156 -729h-163l151 713q12 53 12 98q0 90 -100 90q-59 0 -149 -65.5t-172 -165.5l-144 -670h-162l148 696q8 33 14 68t6 51q0 41 -18 63.5t-64 22.5q-63 0 -156 -62.5t-181 -172.5l-142 -666h-153l155 731l16 88q7 43 7 70q0 43 -15 92l150 70q25 -55 25 -121 q0 -29 -5.5 -58.5t-9.5 -46.5q98 115 194.5 166t182.5 51q90 0 132 -55t42 -160q100 115 198.5 167.5t184.5 52.5t137.5 -59.5t51.5 -139.5q0 -23 -2.5 -41.5t-14.5 -77.5z" />
<glyph unicode="n" horiz-adv-x="1105" d="M985 774l-166 -774h-162l148 690q16 72 16 111q0 102 -98 102q-72 0 -165 -57.5t-191 -179.5l-142 -666h-155l155 729q23 98 23 156q0 47 -15 96l150 70q10 -27 17.5 -54.5t7.5 -70.5q0 -45 -15 -101q80 109 185.5 163t209.5 54q94 0 148.5 -54t54.5 -148z" />
<glyph unicode="o" horiz-adv-x="1124" d="M436 -27q-166 0 -256 96.5t-90 272.5q0 303 162 506t405 203q172 0 259.5 -99.5t87.5 -271.5q0 -301 -160 -504t-408 -203zM629 920q-168 0 -265.5 -166t-97.5 -422q0 -117 50.5 -171.5t150.5 -54.5q168 0 264 172.5t96 419.5q0 113 -56 167.5t-142 54.5z" />
<glyph unicode="p" horiz-adv-x="1128" d="M852 160q-74 -88 -173 -136.5t-204 -48.5q-145 0 -242 52l-90 -422l-166 -31l248 1157q20 102 21 156q0 49 -15 94l150 70q25 -55 25 -125v-52q-6 -29 -9 -40q78 104 177.5 155t193.5 51q129 0 195.5 -87t66.5 -240q0 -143 -48 -299t-130 -254zM707 897q-78 0 -168 -59.5 t-170 -165.5l-107 -502q39 -33 91.5 -47t119.5 -14q70 0 142.5 38.5t118.5 108.5t84 201t38 245q0 102 -35.5 148.5t-113.5 46.5z" />
<glyph unicode="q" horiz-adv-x="1099" d="M997 741l-239 -1124l-160 -33l125 574q-74 -96 -158 -136t-200 -40q-127 0 -199 91t-72 253q0 166 62.5 321.5t200 279.5t360.5 124q113 0 187.5 -20.5t152.5 -69.5q-31 -81 -60 -220zM702 915q-147 0 -241 -88t-144.5 -233t-50.5 -264q0 -211 158 -211q92 0 177 58.5 t163 187.5l108 520q-64 30 -170 30z" />
<glyph unicode="r" horiz-adv-x="669" d="M725 862q-12 4 -32.5 6t-30.5 2q-72 0 -148 -59t-152 -172l-135 -639h-155l147 692q29 133 29 191q0 27 -3 47t-14 51l150 70q25 -61 25 -115q0 -41 -17 -129q72 109 164 174.5t166 65.5q41 0 76 -11z" />
<glyph unicode="s" horiz-adv-x="913" d="M811 860q-72 39 -123 56.5t-117 17.5q-104 0 -167.5 -40t-63.5 -112q0 -53 23.5 -84.5t87.5 -58.5l129 -55q117 -49 166 -110.5t49 -147.5q0 -164 -124 -259.5t-321 -95.5q-100 0 -192 26t-160 73l65 123q139 -96 304 -97q106 0 176.5 48.5t70.5 123.5q0 63 -26.5 101.5 t-102.5 70.5l-120 54q-106 47 -152.5 104t-46.5 145q0 139 115.5 228.5t300.5 89.5q174 0 295 -78z" />
<glyph unicode="t" horiz-adv-x="659" d="M653 899h-221l-127 -598q-14 -63 -14 -111q0 -55 22.5 -77.5t79.5 -22.5q59 0 107 21v-103q-88 -41 -189 -41q-180 0 -180 166q0 45 2 72.5t14 77.5l129 616h-133l23 121h135q27 111 36 143.5t36 114.5l174 37q-25 -68 -47.5 -148t-36.5 -147h254z" />
<glyph unicode="u" horiz-adv-x="1097" d="M893 313q-18 -92 -19 -135q0 -59 46 -119l-125 -102q-39 37 -58.5 80t-19.5 106q0 25 2 39q-92 -111 -190.5 -164t-198.5 -53q-104 0 -159.5 49t-55.5 156q0 43 4 76t12 73l148 693l163 30l-143 -686q-18 -80 -18 -133q0 -68 22.5 -94.5t77.5 -26.5q82 0 184.5 68 t179.5 192l138 648l164 26z" />
<glyph unicode="v" horiz-adv-x="987" d="M430 -10h-158l-149 1022l162 35l88 -703q4 -45 8 -95t4 -79l46 91l44 81l377 678l178 -2z" />
<glyph unicode="w" horiz-adv-x="1427" d="M993 -8h-151l-62 829l-20 -48q-10 -24 -27 -56l-360 -725h-150l-65 1020l161 35l21 -674v-170l30 59l44 88l325 670h172l35 -678l8 -149l66 141l307 686h174z" />
<glyph unicode="x" horiz-adv-x="915" d="M555 563l270 -563h-188l-184 440l-367 -440h-195l502 565l-219 455h193l131 -340l268 340h190z" />
<glyph unicode="y" horiz-adv-x="948" d="M569 156q-152 -276 -197.5 -353t-122.5 -138.5t-194 -84.5l-37 109q43 4 92.5 31.5t86 60.5t68.5 86t65 133l-66 -8q0 70 -7 179.5t-17 186.5l-84 650l168 34l69 -653q2 -23 4 -88t2 -139v-22v-5l115 215l342 670h184z" />
<glyph unicode="z" horiz-adv-x="878" d="M176 123h565l-73 -123h-691v123l713 770h-479v127h678v-127z" />
<glyph unicode="{" horiz-adv-x="681" d="M793 1376h-111q-57 0 -88 -43t-47 -119l-76 -360q-20 -94 -81.5 -167t-149.5 -95q47 -10 87 -52t40 -134v-48q-6 -25 -9 -34l-75 -359q-10 -45 -11 -78q0 -37 17.5 -60.5t58.5 -23.5h111l-27 -122h-143q-70 0 -119 49t-49 137v41q6 20 8 29l76 358q6 37 6 67 q0 78 -38 122t-95 44l26 123q70 0 136.5 64.5t89.5 167.5l76 360q25 117 106.5 186.5t163.5 69.5h143z" />
<glyph unicode="|" horiz-adv-x="454" d="M184 -37h-135l338 1585h135z" />
<glyph unicode="}" horiz-adv-x="681" d="M625 528q-68 0 -135.5 -64.5t-90.5 -168.5l-75 -358q-27 -117 -107 -186.5t-164 -69.5h-143l27 122h110q57 0 88 45.5t47 116.5l76 359q29 131 100.5 193.5t130.5 70.5q-45 16 -86 63t-41 133v39q6 23 9 31l75 360q10 45 11 78q0 39 -17.5 61.5t-58.5 22.5h-111l27 123 h143q66 0 116 -52t50 -138q0 -31 -6 -66l-76 -360q-6 -35 -6 -66q0 -76 39 -121t94 -45z" />
<glyph unicode="~" horiz-adv-x="1363" d="M895 483q-51 0 -88 13.5t-97 43.5l-112 56q-59 27 -117 27q-61 0 -111.5 -41t-90.5 -103l-48 99q102 111 166 145.5t129 34.5q51 0 92 -14.5t97.5 -44t112 -55.5t112.5 -26q59 0 110.5 41t94.5 103l47 -98q-86 -92 -148.5 -136.5t-148.5 -44.5z" />
<glyph unicode="&#xa1;" horiz-adv-x="544" d="M334 1008h123l-174 -1000l-207 -26zM455 1427q51 0 88 -36.5t37 -90.5q0 -53 -36 -88.5t-89 -35.5t-89 35.5t-36 86.5q0 55 35 92t90 37z" />
<glyph unicode="&#xa2;" horiz-adv-x="878" d="M799 825q-33 33 -61.5 51.5t-57.5 24.5l-168 -790q98 23 184 104l66 -102q-137 -117 -279 -131l-32 -156h-113l33 154q-176 16 -229.5 124.5t-53.5 221.5q0 76 26.5 199.5t90 231t162 188.5t229.5 97l35 158h112l-34 -158q66 -8 110.5 -34.5t89.5 -71.5zM403 793 q-80 -109 -111.5 -264.5t-31.5 -211.5q0 -178 137 -208l170 792q-101 -26 -164 -108z" />
<glyph unicode="&#xa3;" horiz-adv-x="1138" d="M1165 1231q-80 96 -213 96q-143 0 -222 -92t-116 -264l-34 -160h331l-28 -135h-332l-109 -516h504l-35 -160h-897l35 160h221l109 516h-197l29 135h197l34 164q53 254 199.5 377t345.5 123q100 0 175 -30t128 -97z" />
<glyph unicode="&#xa4;" horiz-adv-x="915" d="M279 571q-12 -61 -13 -106q0 -150 156 -150q92 0 150.5 56.5t76 140.5t17.5 133q0 72 -35 109t-119 37q-96 0 -153 -60t-80 -160zM213 938l145 78l52 -129q55 14 129 14q66 0 114 -16l103 133l123 -86l-113 -129q16 -16 28.5 -53t12.5 -93q0 -94 -36 -196.5t-103 -155.5 l63 -131l-137 -78l-57 129q-53 -23 -138 -22q-76 0 -133 22l-108 -135l-121 94l121 131q-33 45 -33 134q0 100 42 204.5t109 159.5z" />
<glyph unicode="&#xa5;" horiz-adv-x="1099" d="M817 766h305l-26 -121h-369l-74 -98l-20 -98h422l-27 -121h-422l-69 -328h-175l70 328h-397l26 121h398l22 108l-28 88h-351l27 121h285l-205 639h190l152 -537q10 -33 21.5 -79t17.5 -78l108 157l385 537h209z" />
<glyph unicode="&#xa7;" horiz-adv-x="1138" d="M965 1217q-33 125 -207 124q-104 0 -179 -58t-75 -144t86 -135l162 -93q119 -68 178 -129t59 -157q0 -102 -65.5 -186.5t-169.5 -137.5q47 -35 72.5 -83t25.5 -107q0 -166 -128 -286t-370 -120q-139 0 -233 62.5t-117 189.5l154 68q10 -92 71.5 -132t167.5 -40 q127 0 198 61t71 158q0 59 -37 91t-127 85l-215 127q-111 66 -111 200q0 117 77 203t198 140q-57 37 -87 81.5t-30 106.5q0 166 134 274.5t316 108.5q125 0 219.5 -48t118.5 -147zM666 774l-107 60q-98 -31 -158.5 -81.5t-60.5 -134.5q0 -63 44 -97t91 -58l164 -92 q74 29 131 86t57 127q0 63 -44.5 106t-116.5 84z" />
<glyph unicode="&#xa8;" horiz-adv-x="1024" d="M885 1163q-45 0 -77 32t-32 77q0 43 31 73.5t76 30.5q41 0 73.5 -30.5t32.5 -73.5t-30.5 -76t-73.5 -33zM461 1163q-45 0 -76 31t-31 78q0 43 31 73.5t74 30.5t74.5 -29.5t31.5 -74.5t-29.5 -77t-74.5 -32z" />
<glyph unicode="&#xa9;" horiz-adv-x="1638" d="M1032 1487q270 0 444.5 -168t174.5 -434q0 -76 -45 -288t-286 -423t-611 -211q-272 0 -445.5 165t-173.5 431q0 80 45 290t295 424t602 214zM733 74q289 0 497 184t247 365.5t39 255.5q0 225 -140.5 361t-365.5 136q-281 0 -493 -184t-252 -365.5t-40 -255.5 q0 -225 140.5 -361t367.5 -136zM1100 1018q-72 57 -152 57q-143 0 -233 -145.5t-90 -325.5q0 -199 182 -198q82 0 182 61l55 -98q-66 -39 -137 -59.5t-133 -20.5q-135 0 -211 86t-76 233q0 242 140.5 411t333.5 169q123 0 219 -84z" />
<glyph unicode="&#xaa;" horiz-adv-x="802" d="M831 1333l-65 -317q-12 -66 -12 -101q0 -53 43 -100l-107 -82q-66 66 -65 152q-43 -63 -109.5 -99t-148.5 -36q-78 0 -135.5 63.5t-57.5 185.5q0 121 42 239t144.5 222.5t288.5 104.5q133 0 223 -66zM721 492h-641l24 110h641zM639 1452q-70 0 -122 -24.5t-102 -85 t-76 -155.5t-26 -188q0 -131 107 -131q57 0 119.5 51.5t103.5 131.5l80 385q-12 8 -35.5 12t-48.5 4z" />
<glyph unicode="&#xab;" horiz-adv-x="1024" d="M283 477l180 -356l-123 -68l-221 447l407 430l111 -82zM664 477l180 -356l-123 -68l-221 447l407 430l111 -82z" />
<glyph unicode="&#xac;" horiz-adv-x="1196" d="M895 158h-145l61 286h-651l30 146h797z" />
<glyph unicode="&#xad;" horiz-adv-x="618" d="M506 469h-391l32 156h392z" />
<glyph unicode="&#xae;" horiz-adv-x="1638" d="M907 1055h-84l-59 -283h70q102 0 159.5 47t57.5 121q-1 115 -144 115zM1030 506l41 -93.5t37 -95.5l-121 -36q-78 176 -112.5 240.5t-65.5 109.5t-66 45l-81 -379h-136l187 874h198q145 0 213 -51t68 -162q0 -117 -79 -197.5t-191 -80.5q18 -18 49.5 -68.5t58.5 -105.5z M1016 1487q270 0 444 -168t174 -434q0 -76 -45 -288t-285.5 -423t-611.5 -211q-272 0 -445 165t-173 431q0 80 45 290t295 424t602 214zM717 74q289 0 496.5 184t246.5 365.5t39 255.5q0 225 -140 361t-366 136q-281 0 -492.5 -184t-251.5 -365.5t-40 -255.5 q0 -225 140.5 -361t367.5 -136z" />
<glyph unicode="&#xaf;" horiz-adv-x="460" d="M308 123h-562l25 110h561z" />
<glyph unicode="&#xb0;" horiz-adv-x="798" d="M535 782q-123 0 -212.5 89.5t-89.5 213.5q0 123 90.5 213.5t213.5 90.5q125 0 212 -89.5t87 -214.5q0 -123 -88 -213t-213 -90zM541 1266q-76 0 -131.5 -53.5t-55.5 -127.5q0 -72 54.5 -126t126.5 -54t125 53.5t53 126.5q0 74 -51 127.5t-121 53.5z" />
<glyph unicode="&#xb1;" horiz-adv-x="931" d="M782 219l-30 -145h-752l31 145h751zM139 748h307l58 272h145l-57 -272h307l-33 -146h-307l-59 -287h-146l60 287h-308z" />
<glyph unicode="&#xb2;" d="M825 508q-147 -129 -346 -252l-213 -133q27 0 114 4t99 4h418l-61 -131h-783l29 129q2 0 137 92l290 205q155 113 198 160t64.5 89t21.5 87q0 160 -183 160q-137 0 -346 -146l-53 94q137 100 246.5 145.5t222.5 45.5q139 0 225 -69.5t86 -184.5q0 -72 -43 -151.5 t-123 -147.5z" />
<glyph unicode="&#xb3;" d="M883 150q0 -215 -216 -369t-589 -154h-31q-27 0 -70 6l-14 117q20 -4 50 -4t55 -2q141 0 266 27.5t201.5 87t123 138.5t46.5 153q0 72 -34 126t-84 69t-95.5 19.5t-159.5 4.5h-21l25 114h18h41q104 0 148.5 3t106 27t104.5 97.5t43 145.5q0 80 -53.5 123t-149.5 43 q-72 0 -162 -33t-188 -94l-56 90q119 84 234 127t229 43q145 0 234.5 -77t89.5 -194q0 -125 -89 -228t-229 -138q106 -20 166 -96t60 -172z" />
<glyph unicode="&#xb4;" horiz-adv-x="692" d="M332 1157l-53 96l426 267l88 -158z" />
<glyph unicode="&#xb5;" horiz-adv-x="1097" d="M899 313q-20 -100 -20 -149q0 -55 36 -98l-124 -109q-41 41 -58.5 77t-17.5 87q-150 -156 -357 -156q-43 0 -75.5 9.5t-53.5 29.5l-86 -399l-166 -31l304 1438l170 32l-158 -735q-12 -59 -12 -94q0 -49 40.5 -81t114.5 -32q78 0 159 49.5t140 135.5l154 723l164 26z" />
<glyph unicode="&#xb6;" horiz-adv-x="1228" d="M979 -258h-148l336 1573h-241l-336 -1573h-148l193 905q-162 0 -258 85t-96 220q0 221 161.5 359.5t403.5 138.5h497z" />
<glyph unicode="&#xb8;" horiz-adv-x="878" d="M266 -403q-41 0 -83 14t-74 35l63 96q33 -16 61.5 -24.5t57.5 -8.5t54.5 17.5t31.5 44.5q6 29 -13.5 44t-50.5 15l-80 -4l97 199l116 -15l-45 -96q57 -8 83 -34.5t26 -67.5q0 -20 -10.5 -65.5t-76 -97.5t-157.5 -52z" />
<glyph unicode="&#xb9;" horiz-adv-x="827" d="M500 129h188l-29 -129h-538l29 129h188l151 715q-72 -41 -154.5 -82t-146.5 -66l-22 105l401 237h125z" />
<glyph unicode="&#xba;" horiz-adv-x="802" d="M500 743q-127 0 -197 76t-70 209q0 229 123 383t310 154q133 0 199.5 -77t66.5 -208q0 -227 -122 -382t-310 -155zM764 492h-641l24 110h641zM643 1452q-123 0 -193.5 -121t-70.5 -309q0 -166 143 -166q123 0 193.5 126t70.5 312q0 80 -41 119t-102 39z" />
<glyph unicode="&#xbb;" horiz-adv-x="1024" d="M750 506l-181 356l123 68l221 -447l-407 -430l-111 82zM369 506l-181 356l123 68l221 -447l-407 -430l-111 82z" />
<glyph unicode="&#xbf;" horiz-adv-x="731" d="M285 584q113 74 156.5 156.5t43.5 203.5h138q0 -147 -50.5 -255.5t-169 -182.5t-162.5 -128t-44 -110q0 -154 165 -153q131 0 285 94l53 -109q-186 -125 -370 -125q-150 0 -225.5 68t-75.5 186q0 90 63.5 179.5t192.5 175.5zM612 1417q51 0 88 -37t37 -90t-35.5 -89 t-89.5 -36q-53 0 -89 36t-36 87q0 55 35 92t90 37z" />
<glyph unicode="&#xc0;" horiz-adv-x="1169" d="M877 0l-41 432h-525l-227 -432h-178l768 1405h219l166 -1405h-182zM750 1262l-88 -175l-277 -518h436zM889 1485l-457 205l88 158l422 -267z" />
<glyph unicode="&#xc1;" horiz-adv-x="1169" d="M877 0l-41 432h-525l-227 -432h-178l768 1405h219l166 -1405h-182zM750 1262l-88 -175l-277 -518h436zM670 1485l-53 96l426 267l88 -158z" />
<glyph unicode="&#xc2;" horiz-adv-x="1169" d="M877 0l-41 432h-525l-227 -432h-178l768 1405h219l166 -1405h-182zM750 1262l-88 -175l-277 -518h436zM1065 1477l-246 174l-315 -174l-64 90l404 277l295 -277z" />
<glyph unicode="&#xc3;" horiz-adv-x="1169" d="M877 0l-41 432h-525l-227 -432h-178l768 1405h219l166 -1405h-182zM750 1262l-88 -175l-277 -518h436zM862 1542q-63 0 -124.5 38t-119.5 38q-45 0 -73.5 -16.5t-83.5 -63.5l-39 93q72 70 129 99.5t145 29.5q63 0 125 -38t119 -38q45 0 80 19.5t80 60.5l39 -93 q-70 -68 -130.5 -98.5t-146.5 -30.5z" />
<glyph unicode="&#xc4;" horiz-adv-x="1169" d="M877 0l-41 432h-525l-227 -432h-178l768 1405h219l166 -1405h-182zM750 1262l-88 -175l-277 -518h436zM1004 1491q-45 0 -77 32t-32 77q0 43 31 73.5t76 30.5q41 0 73.5 -30.5t32.5 -73.5t-30.5 -76t-73.5 -33zM580 1491q-45 0 -76 31t-31 78q0 43 31 73.5t74 30.5 t74.5 -29.5t31.5 -74.5t-29.5 -77t-74.5 -32z" />
<glyph unicode="&#xc5;" horiz-adv-x="1169" d="M877 0l-41 432h-525l-227 -432h-178l768 1405h219l166 -1405h-182zM750 1262l-88 -175l-277 -518h436zM809 1461q-88 0 -151.5 63.5t-63.5 153.5t63.5 153.5t153.5 63.5q86 0 149.5 -63.5t63.5 -153.5t-61.5 -153.5t-153.5 -63.5zM813 1801q-51 0 -89 -36t-38 -87 q0 -49 37 -86t86 -37q47 0 84 36.5t37 86.5q0 49 -35 86t-82 37z" />
<glyph unicode="&#xc6;" horiz-adv-x="1884" d="M1872 1266h-565l-97 -461h482l-31 -146h-481l-111 -514h619l-31 -145h-789l93 432h-463l-359 -432h-202l1165 1405h821zM610 569h379l137 656z" />
<glyph unicode="&#xc7;" horiz-adv-x="1126" d="M1114 1202q-100 86 -248 86q-248 0 -363.5 -180t-159.5 -333.5t-44 -297.5q0 -168 85 -263t247 -95q145 0 293 90l65 -117q-201 -115 -416 -115q-211 0 -329.5 136.5t-118.5 371.5q0 184 65.5 374t177 313.5t247 187t270.5 63.5q96 0 179 -30.5t144 -85.5zM413 -403 q-41 0 -83 14t-74 35l63 96q33 -16 61.5 -24.5t57.5 -8.5t54.5 17.5t31.5 44.5q6 29 -13.5 44t-50.5 15l-80 -4l97 199l116 -15l-45 -96q57 -8 83 -34.5t26 -67.5q0 -20 -10.5 -65.5t-76 -97.5t-157.5 -52z" />
<glyph unicode="&#xc8;" horiz-adv-x="1050" d="M385 1405h768l-53 -139h-576l-96 -461h481l-32 -146h-482l-108 -514h618l-31 -145h-788zM955 1485l-457 205l88 158l422 -267z" />
<glyph unicode="&#xc9;" horiz-adv-x="1050" d="M385 1405h768l-53 -139h-576l-96 -461h481l-32 -146h-482l-108 -514h618l-31 -145h-788zM649 1485l-53 96l426 267l88 -158z" />
<glyph unicode="&#xca;" horiz-adv-x="1050" d="M385 1405h768l-53 -139h-576l-96 -461h481l-32 -146h-482l-108 -514h618l-31 -145h-788zM1053 1477l-246 174l-315 -174l-64 90l404 277l295 -277z" />
<glyph unicode="&#xcb;" horiz-adv-x="1050" d="M385 1405h768l-53 -139h-576l-96 -461h481l-32 -146h-482l-108 -514h618l-31 -145h-788zM1004 1491q-45 0 -77 32t-32 77q0 43 31 73.5t76 30.5q41 0 73.5 -30.5t32.5 -73.5t-30.5 -76t-73.5 -33zM580 1491q-45 0 -76 31t-31 78q0 43 31 73.5t74 30.5t74.5 -29.5 t31.5 -74.5t-29.5 -77t-74.5 -32z" />
<glyph unicode="&#xcc;" horiz-adv-x="540" d="M250 0h-164l299 1405h164zM555 1485l-457 205l88 158l422 -267z" />
<glyph unicode="&#xcd;" horiz-adv-x="540" d="M250 0h-164l299 1405h164zM379 1485l-53 96l426 267l88 -158z" />
<glyph unicode="&#xce;" horiz-adv-x="540" d="M250 0h-164l299 1405h164zM772 1477l-246 174l-315 -174l-64 90l404 277l295 -277z" />
<glyph unicode="&#xcf;" horiz-adv-x="540" d="M250 0h-164l299 1405h164zM707 1491q-45 0 -77 32t-32 77q0 43 31 73.5t76 30.5q41 0 73.5 -30.5t32.5 -73.5t-30.5 -76t-73.5 -33zM283 1491q-45 0 -76 31t-31 78q0 43 31 73.5t74 30.5t74.5 -29.5t31.5 -74.5t-29.5 -77t-74.5 -32z" />
<glyph unicode="&#xd1;" horiz-adv-x="1310" d="M385 1405h195l276 -897q25 -80 40 -158l28 -137l28 190q16 106 45 238l156 764h166l-299 -1405h-176l-269 860q-31 98 -52 187l-36 151l-22 -165q-12 -89 -39 -218l-166 -815h-174zM956 1548q-63 0 -124.5 38t-119.5 38q-45 0 -73.5 -16.5t-83.5 -63.5l-39 93 q72 70 129 99.5t145 29.5q63 0 125 -38t119 -38q45 0 80 19.5t80 60.5l39 -93q-70 -68 -130.5 -98.5t-146.5 -30.5z" />
<glyph unicode="&#xd2;" horiz-adv-x="1368" d="M981 100q-90 -70 -183 -98.5t-223 -28.5q-215 0 -326.5 132.5t-111.5 365.5q0 225 77 437t185.5 322.5t217 155t262.5 44.5q209 0 324.5 -124t115.5 -352q0 -262 -87 -495.5t-251 -358.5zM850 1294q-109 0 -194 -42t-157.5 -141t-124.5 -282.5t-52 -396.5 q0 -168 74.5 -249t215.5 -81q170 0 278.5 110t177.5 335t69 424q0 154 -70 238.5t-217 84.5zM1006 1485l-457 205l88 158l422 -267z" />
<glyph unicode="&#xd3;" horiz-adv-x="1368" d="M981 100q-90 -70 -183 -98.5t-223 -28.5q-215 0 -326.5 132.5t-111.5 365.5q0 225 77 437t185.5 322.5t217 155t262.5 44.5q209 0 324.5 -124t115.5 -352q0 -262 -87 -495.5t-251 -358.5zM850 1294q-109 0 -194 -42t-157.5 -141t-124.5 -282.5t-52 -396.5 q0 -168 74.5 -249t215.5 -81q170 0 278.5 110t177.5 335t69 424q0 154 -70 238.5t-217 84.5zM766 1485l-53 96l426 267l88 -158z" />
<glyph unicode="&#xd4;" horiz-adv-x="1368" d="M981 100q-90 -70 -183 -98.5t-223 -28.5q-215 0 -326.5 132.5t-111.5 365.5q0 225 77 437t185.5 322.5t217 155t262.5 44.5q209 0 324.5 -124t115.5 -352q0 -262 -87 -495.5t-251 -358.5zM850 1294q-109 0 -194 -42t-157.5 -141t-124.5 -282.5t-52 -396.5 q0 -168 74.5 -249t215.5 -81q170 0 278.5 110t177.5 335t69 424q0 154 -70 238.5t-217 84.5zM1163 1477l-246 174l-315 -174l-64 90l404 277l295 -277z" />
<glyph unicode="&#xd5;" horiz-adv-x="1368" d="M981 100q-90 -70 -183 -98.5t-223 -28.5q-215 0 -326.5 132.5t-111.5 365.5q0 225 77 437t185.5 322.5t217 155t262.5 44.5q209 0 324.5 -124t115.5 -352q0 -262 -87 -495.5t-251 -358.5zM850 1294q-109 0 -194 -42t-157.5 -141t-124.5 -282.5t-52 -396.5 q0 -168 74.5 -249t215.5 -81q170 0 278.5 110t177.5 335t69 424q0 154 -70 238.5t-217 84.5zM993 1542q-63 0 -124.5 38t-119.5 38q-45 0 -73.5 -16.5t-83.5 -63.5l-39 93q72 70 129 99.5t145 29.5q63 0 125 -38t119 -38q45 0 80 19.5t80 60.5l39 -93q-70 -68 -130.5 -98.5 t-146.5 -30.5z" />
<glyph unicode="&#xd6;" horiz-adv-x="1368" d="M981 100q-90 -70 -183 -98.5t-223 -28.5q-215 0 -326.5 132.5t-111.5 365.5q0 225 77 437t185.5 322.5t217 155t262.5 44.5q209 0 324.5 -124t115.5 -352q0 -262 -87 -495.5t-251 -358.5zM850 1294q-109 0 -194 -42t-157.5 -141t-124.5 -282.5t-52 -396.5 q0 -168 74.5 -249t215.5 -81q170 0 278.5 110t177.5 335t69 424q0 154 -70 238.5t-217 84.5zM1121 1497q-45 0 -77 32t-32 77q0 43 31 73.5t76 30.5q41 0 73.5 -30.5t32.5 -73.5t-30.5 -76t-73.5 -33zM697 1497q-45 0 -76 31t-31 78q0 43 31 73.5t74 30.5t74.5 -29.5 t31.5 -74.5t-29.5 -77t-74.5 -32z" />
<glyph unicode="&#xd8;" horiz-adv-x="1353" d="M1249 1243q70 -117 70 -289q0 -262 -87 -495.5t-214 -330.5t-220 -126t-223 -29q-174 0 -284 93l-189 -232l-92 66l205 252q-78 125 -78 319q0 225 77 437t185.5 322.5t217 155t262.5 44.5q182 0 295 -97l178 219l96 -65zM850 1296q-106 0 -192.5 -44t-159 -141 t-126 -282.5t-53.5 -396.5q0 -31 3.5 -60.5t11.5 -72.5l737 907q-74 90 -221 90zM1126 1090l-737 -902q76 -88 223 -88q168 0 277.5 111t179.5 338t70 422q-1 66 -13 119z" />
<glyph unicode="&#xd9;" horiz-adv-x="1292" d="M1102 428q-33 -154 -67 -224.5t-108.5 -124.5t-166.5 -79t-209 -25q-182 0 -287.5 74t-105.5 227q0 63 3 96.5t15 90.5l201 942h166l-191 -899q-16 -78 -23 -130t-7 -85q0 -82 63.5 -127t183.5 -45q182 0 243.5 64.5t84.5 114.5t43 148l203 959h166zM981 1485l-457 205 l88 158l422 -267z" />
<glyph unicode="&#xda;" horiz-adv-x="1292" d="M1102 428q-33 -154 -67 -224.5t-108.5 -124.5t-166.5 -79t-209 -25q-182 0 -287.5 74t-105.5 227q0 63 3 96.5t15 90.5l201 942h166l-191 -899q-16 -78 -23 -130t-7 -85q0 -82 63.5 -127t183.5 -45q182 0 243.5 64.5t84.5 114.5t43 148l203 959h166zM729 1485l-53 96 l426 267l88 -158z" />
<glyph unicode="&#xdb;" horiz-adv-x="1292" d="M1102 428q-33 -154 -67 -224.5t-108.5 -124.5t-166.5 -79t-209 -25q-182 0 -287.5 74t-105.5 227q0 63 3 96.5t15 90.5l201 942h166l-191 -899q-16 -78 -23 -130t-7 -85q0 -82 63.5 -127t183.5 -45q182 0 243.5 64.5t84.5 114.5t43 148l203 959h166zM1149 1477l-246 174 l-315 -174l-64 90l404 277l295 -277z" />
<glyph unicode="&#xdc;" horiz-adv-x="1292" d="M1102 428q-33 -154 -67 -224.5t-108.5 -124.5t-166.5 -79t-209 -25q-182 0 -287.5 74t-105.5 227q0 63 3 96.5t15 90.5l201 942h166l-191 -899q-16 -78 -23 -130t-7 -85q0 -82 63.5 -127t183.5 -45q182 0 243.5 64.5t84.5 114.5t43 148l203 959h166zM1069 1491 q-45 0 -77 32t-32 77q0 43 31 73.5t76 30.5q41 0 73.5 -30.5t32.5 -73.5t-30.5 -76t-73.5 -33zM645 1491q-45 0 -76 31t-31 78q0 43 31 73.5t74 30.5t74.5 -29.5t31.5 -74.5t-29.5 -77t-74.5 -32z" />
<glyph unicode="&#xdd;" horiz-adv-x="1099" d="M764 1552l-53 96l426 267l88 -158zM635 547l-117 -547h-174l119 557l-273 848h199l152 -537q10 -33 21 -79t18 -78l108 157l385 537h201z" />
<glyph unicode="&#xdf;" horiz-adv-x="1171" d="M686 813q0 -12 175 -115.5t175 -287.5q0 -174 -132 -304.5t-349 -130.5q-59 0 -99 8.5t-81 26.5l49 113q33 -14 64.5 -22.5t68.5 -8.5q133 0 224 75t91 202q0 150 -166.5 240.5t-166.5 178.5q0 86 183 172.5t183 223.5q0 66 -46 105.5t-128 39.5q-219 0 -280 -311 l-209 -1047q-51 -266 -156 -397l-133 72q47 66 77.5 142.5t53.5 197.5l186 913h-151l26 121h148l8 35q49 213 164 304t303 91q139 0 223 -73.5t84 -188.5q0 -147 -123 -236z" />
<glyph unicode="&#xe0;" horiz-adv-x="1038" d="M930 752l-88 -422q-18 -92 -19 -142q0 -43 13.5 -71.5t40.5 -57.5l-127 -98q-45 47 -60.5 94t-15.5 129q-53 -94 -145.5 -148t-209.5 -54q-102 0 -172.5 81.5t-70.5 241.5q0 156 56 312.5t190.5 294t373.5 137.5q168 0 287 -84zM682 920q-94 0 -161.5 -34t-137.5 -117 t-105.5 -210t-35.5 -256q0 -100 35.5 -142t111.5 -42q82 0 165 66.5t140 179.5l111 526q-47 29 -123 29zM864 1157l-457 205l88 158l422 -267z" />
<glyph unicode="&#xe1;" horiz-adv-x="1038" d="M930 752l-88 -422q-18 -92 -19 -142q0 -43 13.5 -71.5t40.5 -57.5l-127 -98q-45 47 -60.5 94t-15.5 129q-53 -94 -145.5 -148t-209.5 -54q-102 0 -172.5 81.5t-70.5 241.5q0 156 56 312.5t190.5 294t373.5 137.5q168 0 287 -84zM682 920q-94 0 -161.5 -34t-137.5 -117 t-105.5 -210t-35.5 -256q0 -100 35.5 -142t111.5 -42q82 0 165 66.5t140 179.5l111 526q-47 29 -123 29zM602 1157l-53 96l426 267l88 -158z" />
<glyph unicode="&#xe2;" horiz-adv-x="1038" d="M930 752l-88 -422q-18 -92 -19 -142q0 -43 13.5 -71.5t40.5 -57.5l-127 -98q-45 47 -60.5 94t-15.5 129q-53 -94 -145.5 -148t-209.5 -54q-102 0 -172.5 81.5t-70.5 241.5q0 156 56 312.5t190.5 294t373.5 137.5q168 0 287 -84zM682 920q-94 0 -161.5 -34t-137.5 -117 t-105.5 -210t-35.5 -256q0 -100 35.5 -142t111.5 -42q82 0 165 66.5t140 179.5l111 526q-47 29 -123 29zM998 1149l-246 174l-315 -174l-64 90l404 277l295 -277z" />
<glyph unicode="&#xe3;" horiz-adv-x="1038" d="M930 752l-88 -422q-18 -92 -19 -142q0 -43 13.5 -71.5t40.5 -57.5l-127 -98q-45 47 -60.5 94t-15.5 129q-53 -94 -145.5 -148t-209.5 -54q-102 0 -172.5 81.5t-70.5 241.5q0 156 56 312.5t190.5 294t373.5 137.5q168 0 287 -84zM682 920q-94 0 -161.5 -34t-137.5 -117 t-105.5 -210t-35.5 -256q0 -100 35.5 -142t111.5 -42q82 0 165 66.5t140 179.5l111 526q-47 29 -123 29zM784 1214q-63 0 -124.5 38t-119.5 38q-45 0 -73.5 -16.5t-83.5 -63.5l-39 93q72 70 129 99.5t145 29.5q63 0 125 -38t119 -38q45 0 80 19.5t80 60.5l39 -93 q-70 -68 -130.5 -98.5t-146.5 -30.5z" />
<glyph unicode="&#xe4;" horiz-adv-x="1038" d="M930 752l-88 -422q-18 -92 -19 -142q0 -43 13.5 -71.5t40.5 -57.5l-127 -98q-45 47 -60.5 94t-15.5 129q-53 -94 -145.5 -148t-209.5 -54q-102 0 -172.5 81.5t-70.5 241.5q0 156 56 312.5t190.5 294t373.5 137.5q168 0 287 -84zM682 920q-94 0 -161.5 -34t-137.5 -117 t-105.5 -210t-35.5 -256q0 -100 35.5 -142t111.5 -42q82 0 165 66.5t140 179.5l111 526q-47 29 -123 29zM905 1163q-45 0 -77 32t-32 77q0 43 31 73.5t76 30.5q41 0 73.5 -30.5t32.5 -73.5t-30.5 -76t-73.5 -33zM481 1163q-45 0 -76 31t-31 78q0 43 31 73.5t74 30.5 t74.5 -29.5t31.5 -74.5t-29.5 -77t-74.5 -32z" />
<glyph unicode="&#xe5;" horiz-adv-x="1038" d="M930 752l-88 -422q-18 -92 -19 -142q0 -43 13.5 -71.5t40.5 -57.5l-127 -98q-45 47 -60.5 94t-15.5 129q-53 -94 -145.5 -148t-209.5 -54q-102 0 -172.5 81.5t-70.5 241.5q0 156 56 312.5t190.5 294t373.5 137.5q168 0 287 -84zM682 920q-94 0 -161.5 -34t-137.5 -117 t-105.5 -210t-35.5 -256q0 -100 35.5 -142t111.5 -42q82 0 165 66.5t140 179.5l111 526q-47 29 -123 29zM694 1133q-88 0 -151.5 63.5t-63.5 153.5t63.5 153.5t153.5 63.5q86 0 149.5 -63.5t63.5 -153.5t-61.5 -153.5t-153.5 -63.5zM698 1473q-51 0 -89 -36t-38 -87 q0 -49 37 -86t86 -37q47 0 84 36.5t37 86.5q0 49 -35 86t-82 37z" />
<glyph unicode="&#xe6;" horiz-adv-x="1581" d="M1399 575q-66 -61 -170.5 -90.5t-270.5 -29.5l-127 4q-14 -66 -14 -129q0 -104 57.5 -161.5t145.5 -57.5q100 0 164.5 23.5t138.5 88.5l63 -96q-76 -78 -169 -114t-244 -36q-92 0 -161 41t-120 125q-74 -88 -162 -129t-188 -41q-143 0 -216 73t-73 185q0 86 38 156 t124 123t186.5 70.5t208.5 17.5q41 0 65.5 -2t39.5 -4l26 108q8 35 11.5 58.5t3.5 50.5q0 49 -37 77.5t-105 28.5q-80 0 -167 -28.5t-181 -91.5l-55 114q117 68 228.5 103t226.5 35q178 0 223 -146q141 147 328 148q135 0 206.5 -68t71.5 -190q0 -61 -25.5 -118t-70.5 -98z M1176 922q-100 0 -189.5 -93.5t-128.5 -248.5l105 -2q135 0 204.5 18t102.5 51t47 64.5t14 68.5q0 63 -36.5 102.5t-118.5 39.5zM348 444q-129 -72 -129 -184q0 -78 43 -123t113 -45q63 0 116.5 27.5t89 70.5t57 99.5t52.5 189.5q-23 2 -51.5 3t-63.5 1q-96 0 -143 -9.5 t-84 -29.5z" />
<glyph unicode="&#xe7;" horiz-adv-x="901" d="M823 836q-45 39 -96 55t-111 16q-59 0 -117.5 -29.5t-106.5 -95t-92 -203t-44 -253.5q0 -221 193 -222q127 0 243 111l66 -102q-162 -135 -340 -136q-334 0 -334 347q0 168 79 345t201.5 277.5t286.5 100.5q150 0 248 -86zM266 -403q-41 0 -83 14t-74 35l63 96 q33 -16 61.5 -24.5t57.5 -8.5t54.5 17.5t31.5 44.5q6 29 -13.5 44t-50.5 15l-80 -4l97 199l116 -15l-45 -96q57 -8 83 -34.5t26 -67.5q0 -20 -10.5 -65.5t-76 -97.5t-157.5 -52z" />
<glyph unicode="&#xe8;" horiz-adv-x="1038" d="M854 571q-125 -117 -440 -116l-127 4q-14 -66 -15 -129q0 -104 57.5 -161.5t145.5 -57.5q98 0 161.5 24.5t137.5 91.5l68 -98q-80 -80 -172 -116t-242 -36q-145 0 -239.5 98.5t-94.5 270.5q0 156 57.5 307.5t188.5 273.5t315 122q143 0 218 -71t75 -194q0 -66 -23.5 -118 t-70.5 -95zM631 922q-100 0 -189.5 -93.5t-128.5 -248.5l105 -2q135 0 204.5 18t102.5 51t47 64.5t14 68.5q0 63 -36.5 102.5t-118.5 39.5zM815 1157l-457 205l88 158l422 -267z" />
<glyph unicode="&#xe9;" horiz-adv-x="1038" d="M854 571q-125 -117 -440 -116l-127 4q-14 -66 -15 -129q0 -104 57.5 -161.5t145.5 -57.5q98 0 161.5 24.5t137.5 91.5l68 -98q-80 -80 -172 -116t-242 -36q-145 0 -239.5 98.5t-94.5 270.5q0 156 57.5 307.5t188.5 273.5t315 122q143 0 218 -71t75 -194q0 -66 -23.5 -118 t-70.5 -95zM631 922q-100 0 -189.5 -93.5t-128.5 -248.5l105 -2q135 0 204.5 18t102.5 51t47 64.5t14 68.5q0 63 -36.5 102.5t-118.5 39.5zM606 1157l-53 96l426 267l88 -158z" />
<glyph unicode="&#xea;" horiz-adv-x="1038" d="M854 571q-125 -117 -440 -116l-127 4q-14 -66 -15 -129q0 -104 57.5 -161.5t145.5 -57.5q98 0 161.5 24.5t137.5 91.5l68 -98q-80 -80 -172 -116t-242 -36q-145 0 -239.5 98.5t-94.5 270.5q0 156 57.5 307.5t188.5 273.5t315 122q143 0 218 -71t75 -194q0 -66 -23.5 -118 t-70.5 -95zM631 922q-100 0 -189.5 -93.5t-128.5 -248.5l105 -2q135 0 204.5 18t102.5 51t47 64.5t14 68.5q0 63 -36.5 102.5t-118.5 39.5zM944 1149l-246 174l-315 -174l-64 90l404 277l295 -277z" />
<glyph unicode="&#xeb;" horiz-adv-x="1038" d="M854 571q-125 -117 -440 -116l-127 4q-14 -66 -15 -129q0 -104 57.5 -161.5t145.5 -57.5q98 0 161.5 24.5t137.5 91.5l68 -98q-80 -80 -172 -116t-242 -36q-145 0 -239.5 98.5t-94.5 270.5q0 156 57.5 307.5t188.5 273.5t315 122q143 0 218 -71t75 -194q0 -66 -23.5 -118 t-70.5 -95zM631 922q-100 0 -189.5 -93.5t-128.5 -248.5l105 -2q135 0 204.5 18t102.5 51t47 64.5t14 68.5q0 63 -36.5 102.5t-118.5 39.5zM903 1163q-45 0 -77 32t-32 77q0 43 31 73.5t76 30.5q41 0 73.5 -30.5t32.5 -73.5t-30.5 -76t-73.5 -33zM479 1163q-45 0 -76 31 t-31 78q0 43 31 73.5t74 30.5t74.5 -29.5t31.5 -74.5t-29.5 -77t-74.5 -32z" />
<glyph unicode="&#xec;" horiz-adv-x="509" d="M236 0h-173l218 1016l176 26zM520 1157l-457 205l88 158l422 -267z" />
<glyph unicode="&#xed;" horiz-adv-x="509" d="M236 0h-173l218 1016l176 26zM324 1157l-53 96l426 267l88 -158z" />
<glyph unicode="&#xee;" horiz-adv-x="509" d="M236 0h-173l218 1016l176 26zM688 1149l-246 174l-315 -174l-64 90l404 277l295 -277z" />
<glyph unicode="&#xef;" horiz-adv-x="509" d="M236 0h-173l218 1016l176 26zM627 1163q-45 0 -77 32t-32 77q0 43 31 73.5t76 30.5q41 0 73.5 -30.5t32.5 -73.5t-30.5 -76t-73.5 -33zM203 1163q-45 0 -76 31t-31 78q0 43 31 73.5t74 30.5t74.5 -29.5t31.5 -74.5t-29.5 -77t-74.5 -32z" />
<glyph unicode="&#xf1;" horiz-adv-x="1085" d="M985 774l-166 -774h-162l148 690q16 72 16 111q0 102 -98 102q-72 0 -165 -57.5t-191 -179.5l-142 -666h-155l155 729q23 98 23 156q0 47 -15 96l150 70q10 -27 17.5 -54.5t7.5 -70.5q0 -45 -15 -101q80 109 185.5 163t209.5 54q94 0 148.5 -54t54.5 -148zM782 1214 q-63 0 -124.5 38t-119.5 38q-45 0 -73.5 -16.5t-83.5 -63.5l-39 93q72 70 129 99.5t145 29.5q63 0 125 -38t119 -38q45 0 80 19.5t80 60.5l39 -93q-70 -68 -130.5 -98.5t-146.5 -30.5z" />
<glyph unicode="&#xf2;" horiz-adv-x="1101" d="M436 -27q-166 0 -256 96.5t-90 272.5q0 303 162 506t405 203q172 0 259.5 -99.5t87.5 -271.5q0 -301 -160 -504t-408 -203zM629 920q-168 0 -265.5 -166t-97.5 -422q0 -117 50.5 -171.5t150.5 -54.5q168 0 264 172.5t96 419.5q0 113 -56 167.5t-142 54.5zM821 1157 l-457 205l88 158l422 -267z" />
<glyph unicode="&#xf3;" horiz-adv-x="1101" d="M436 -27q-166 0 -256 96.5t-90 272.5q0 303 162 506t405 203q172 0 259.5 -99.5t87.5 -271.5q0 -301 -160 -504t-408 -203zM629 920q-168 0 -265.5 -166t-97.5 -422q0 -117 50.5 -171.5t150.5 -54.5q168 0 264 172.5t96 419.5q0 113 -56 167.5t-142 54.5zM615 1157 l-53 96l426 267l88 -158z" />
<glyph unicode="&#xf4;" horiz-adv-x="1101" d="M436 -27q-166 0 -256 96.5t-90 272.5q0 303 162 506t405 203q172 0 259.5 -99.5t87.5 -271.5q0 -301 -160 -504t-408 -203zM629 920q-168 0 -265.5 -166t-97.5 -422q0 -117 50.5 -171.5t150.5 -54.5q168 0 264 172.5t96 419.5q0 113 -56 167.5t-142 54.5zM975 1149 l-246 174l-315 -174l-64 90l404 277l295 -277z" />
<glyph unicode="&#xf5;" horiz-adv-x="1101" d="M436 -27q-166 0 -256 96.5t-90 272.5q0 303 162 506t405 203q172 0 259.5 -99.5t87.5 -271.5q0 -301 -160 -504t-408 -203zM629 920q-168 0 -265.5 -166t-97.5 -422q0 -117 50.5 -171.5t150.5 -54.5q168 0 264 172.5t96 419.5q0 113 -56 167.5t-142 54.5zM809 1214 q-63 0 -124.5 38t-119.5 38q-45 0 -73.5 -16.5t-83.5 -63.5l-39 93q72 70 129 99.5t145 29.5q63 0 125 -38t119 -38q45 0 80 19.5t80 60.5l39 -93q-70 -68 -130.5 -98.5t-146.5 -30.5z" />
<glyph unicode="&#xf6;" horiz-adv-x="1101" d="M436 -27q-166 0 -256 96.5t-90 272.5q0 303 162 506t405 203q172 0 259.5 -99.5t87.5 -271.5q0 -301 -160 -504t-408 -203zM629 920q-168 0 -265.5 -166t-97.5 -422q0 -117 50.5 -171.5t150.5 -54.5q168 0 264 172.5t96 419.5q0 113 -56 167.5t-142 54.5zM926 1163 q-45 0 -77 32t-32 77q0 43 31 73.5t76 30.5q41 0 73.5 -30.5t32.5 -73.5t-30.5 -76t-73.5 -33zM502 1163q-45 0 -76 31t-31 78q0 43 31 73.5t74 30.5t74.5 -29.5t31.5 -74.5t-29.5 -77t-74.5 -32z" />
<glyph unicode="&#xf7;" horiz-adv-x="1744" d="M1622 1210q-53 0 -89 36t-36 87q0 53 35 90t90 37q53 0 89 -35.5t36 -89.5q0 -53 -36 -89t-89 -36zM1421 0h-170l193 899h-422l-184 -928q-51 -262 -158 -397l-131 72q47 66 78.5 146.5t54.5 193.5l178 913h-434l-184 -928q-51 -262 -158 -397l-131 72q47 66 78.5 146.5 t54.5 193.5l178 913h-104l22 121h105l26 137q39 199 136.5 262.5t214.5 63.5q125 0 200 -51l-59 -121q-70 47 -152 47q-137 0 -176 -180l-28 -158h434l26 137q39 199 136.5 262.5t214.5 63.5q125 0 200 -51l-59 -121q-70 47 -152 47q-137 0 -176 -180l-29 -158h596z" />
<glyph unicode="&#xf8;" horiz-adv-x="1124" d="M961 911q61 -92 61 -239q0 -301 -160 -504t-407 -203q-131 0 -215 62l-134 -162l-83 61l143 176q-57 96 -57 232q0 303 161.5 505.5t405.5 202.5q125 0 209 -55l137 170l88 -61zM647 913q-168 0 -266 -166.5t-98 -422.5l6 -70l495 610q-51 49 -137 49zM840 764l-502 -617 q49 -51 147 -51q170 0 266.5 171t96.5 423q0 47 -8 74z" />
<glyph unicode="&#xf9;" horiz-adv-x="1120" d="M893 313q-18 -92 -19 -135q0 -59 46 -119l-125 -102q-39 37 -58.5 80t-19.5 106q0 25 2 39q-92 -111 -190.5 -164t-198.5 -53q-104 0 -159.5 49t-55.5 156q0 43 4 76t12 73l148 693l163 30l-143 -686q-18 -80 -18 -133q0 -68 22.5 -94.5t77.5 -26.5q82 0 184.5 68 t179.5 192l138 648l164 26zM848 1157l-457 205l88 158l422 -267z" />
<glyph unicode="&#xfa;" horiz-adv-x="1120" d="M893 313q-18 -92 -19 -135q0 -59 46 -119l-125 -102q-39 37 -58.5 80t-19.5 106q0 25 2 39q-92 -111 -190.5 -164t-198.5 -53q-104 0 -159.5 49t-55.5 156q0 43 4 76t12 73l148 693l163 30l-143 -686q-18 -80 -18 -133q0 -68 22.5 -94.5t77.5 -26.5q82 0 184.5 68 t179.5 192l138 648l164 26zM637 1157l-53 96l426 267l88 -158z" />
<glyph unicode="&#xfb;" horiz-adv-x="1120" d="M893 313q-18 -92 -19 -135q0 -59 46 -119l-125 -102q-39 37 -58.5 80t-19.5 106q0 25 2 39q-92 -111 -190.5 -164t-198.5 -53q-104 0 -159.5 49t-55.5 156q0 43 4 76t12 73l148 693l163 30l-143 -686q-18 -80 -18 -133q0 -68 22.5 -94.5t77.5 -26.5q82 0 184.5 68 t179.5 192l138 648l164 26zM1008 1149l-246 174l-315 -174l-64 90l404 277l295 -277z" />
<glyph unicode="&#xfc;" horiz-adv-x="1120" d="M893 313q-18 -92 -19 -135q0 -59 46 -119l-125 -102q-39 37 -58.5 80t-19.5 106q0 25 2 39q-92 -111 -190.5 -164t-198.5 -53q-104 0 -159.5 49t-55.5 156q0 43 4 76t12 73l148 693l163 30l-143 -686q-18 -80 -18 -133q0 -68 22.5 -94.5t77.5 -26.5q82 0 184.5 68 t179.5 192l138 648l164 26zM928 1163q-45 0 -77 32t-32 77q0 43 31 73.5t76 30.5q41 0 73.5 -30.5t32.5 -73.5t-30.5 -76t-73.5 -33zM504 1163q-45 0 -76 31t-31 78q0 43 31 73.5t74 30.5t74.5 -29.5t31.5 -74.5t-29.5 -77t-74.5 -32z" />
<glyph unicode="&#xfd;" horiz-adv-x="948" d="M352 1173l-53 96l426 267l88 -158zM569 156q-152 -276 -197.5 -353t-122.5 -138.5t-194 -84.5l-37 109q43 4 92.5 31.5t86 60.5t68.5 86t65 133l-66 -8q0 70 -7 179.5t-17 186.5l-84 650l168 34l69 -653q2 -23 4 -88t2 -139v-22v-5l115 215l342 670h184z" />
<glyph unicode="&#xff;" horiz-adv-x="956" d="M569 156q-152 -276 -197.5 -353t-122.5 -138.5t-194 -84.5l-37 109q43 4 92.5 31.5t86 60.5t68.5 86t65 133l-66 -8q0 70 -7 179.5t-17 186.5l-84 650l168 34l69 -653q2 -23 4 -88t2 -139v-22v-5l115 215l342 670h184zM858 1163q-45 0 -77 32t-32 77q0 43 31 73.5 t76 30.5q41 0 73.5 -30.5t32.5 -73.5t-30.5 -76t-73.5 -33zM434 1163q-45 0 -76 31t-31 78q0 43 31 73.5t74 30.5t74.5 -29.5t31.5 -74.5t-29.5 -77t-74.5 -32z" />
<glyph unicode="&#x131;" horiz-adv-x="509" d="M236 0h-173l218 1016l176 26z" />
<glyph unicode="&#x152;" horiz-adv-x="1732" d="M1798 1264h-575l-99 -459h482l-31 -146h-481l-109 -514h619l-33 -145l-901 -2q-176 0 -260 18.5t-196 113.5t-112 335q0 111 33 260t103.5 282.5t172 225.5t210 131t262.5 39h966zM870 1260q-133 0 -223 -34t-153.5 -112t-107.5 -179t-71.5 -232.5t-27.5 -229.5 q0 -123 68.5 -230.5t222.5 -107.5h22q66 0 112 2t103 10l234 1098q-47 6 -92.5 10.5t-86.5 4.5z" />
<glyph unicode="&#x153;" horiz-adv-x="1728" d="M1569 571q-125 -117 -441 -116l-127 4q-14 -66 -14 -129q0 -104 57.5 -161.5t145.5 -57.5q98 0 161.5 24.5t137.5 91.5l67 -98q-80 -80 -172 -116t-241 -36q-94 0 -170 43t-119 125q-78 -88 -175 -134t-216 -46q-166 0 -256 96.5t-90 272.5q0 303 161.5 505.5 t405.5 202.5q119 0 194.5 -46t114.5 -132q174 184 377 185q143 0 218 -71t75 -194q0 -66 -23.5 -118t-70.5 -95zM1346 922q-100 0 -189.5 -93.5t-128.5 -248.5l105 -2q135 0 204.5 18t102.5 51t47 64.5t14 68.5q0 63 -36.5 102.5t-118.5 39.5zM655 911q-168 0 -265 -165.5 t-97 -421.5q0 -117 50 -171.5t151 -54.5q168 0 264 172t96 420q0 113 -56.5 167t-142.5 54z" />
<glyph unicode="&#x178;" horiz-adv-x="1099" d="M655 547l-116 -547h-174l118 557l-272 848h199l151 -537q10 -33 21.5 -79t17.5 -78l109 157l385 537h200zM1028 1491q-45 0 -76.5 31.5t-31.5 76.5q0 43 30.5 74t75.5 31q41 0 74 -31t33 -74t-31 -75.5t-74 -32.5zM604 1491q-45 0 -75.5 30.5t-30.5 77.5q0 43 30.5 74 t73.5 31t75 -29.5t32 -75.5q0 -45 -30 -76.5t-75 -31.5z" />
<glyph unicode="&#x2c6;" horiz-adv-x="1363" d="M1067 563l-215 715l-518 -715h-152l645 887h123l269 -887h-152z" />
<glyph unicode="&#x2c9;" horiz-adv-x="823" d="M879 1399h-562l25 110h561z" />
<glyph unicode="&#x2da;" horiz-adv-x="645" d="M504 1133q-88 0 -151.5 63.5t-63.5 153.5t63.5 153.5t153.5 63.5q86 0 149.5 -63.5t63.5 -153.5t-61.5 -153.5t-153.5 -63.5zM508 1473q-51 0 -89 -36t-38 -87q0 -49 37 -86t86 -37q47 0 84 36.5t37 86.5q0 49 -35 86t-82 37z" />
<glyph unicode="&#x2dc;" horiz-adv-x="460" d="M133 127q-63 0 -124.5 38t-119.5 38q-45 0 -73.5 -16.5t-83.5 -63.5l-39 93q72 70 129 99.5t145 29.5q63 0 125 -38t119 -38q45 0 80 19.5t80 60.5l39 -93q-70 -68 -130.5 -98.5t-146.5 -30.5z" />
<glyph unicode="&#x302;" horiz-adv-x="823" d="M846 1149l-246 174l-315 -174l-64 90l404 277l295 -277z" />
<glyph unicode="&#x303;" horiz-adv-x="778" d="M643 1214q-63 0 -124.5 38t-119.5 38q-45 0 -73.5 -16.5t-83.5 -63.5l-39 93q72 70 129 99.5t145 29.5q63 0 125 -38t119 -38q45 0 80 19.5t80 60.5l39 -93q-70 -68 -130.5 -98.5t-146.5 -30.5z" />
<glyph unicode="&#x2000;" horiz-adv-x="956" />
<glyph unicode="&#x2001;" horiz-adv-x="1914" />
<glyph unicode="&#x2002;" horiz-adv-x="956" />
<glyph unicode="&#x2003;" horiz-adv-x="1914" />
<glyph unicode="&#x2004;" horiz-adv-x="636" />
<glyph unicode="&#x2005;" horiz-adv-x="477" />
<glyph unicode="&#x2006;" horiz-adv-x="317" />
<glyph unicode="&#x2007;" horiz-adv-x="317" />
<glyph unicode="&#x2008;" horiz-adv-x="237" />
<glyph unicode="&#x2009;" horiz-adv-x="382" />
<glyph unicode="&#x200a;" horiz-adv-x="104" />
<glyph unicode="&#x2010;" horiz-adv-x="618" d="M506 469h-391l32 156h392z" />
<glyph unicode="&#x2011;" horiz-adv-x="618" d="M506 469h-391l32 156h392z" />
<glyph unicode="&#x2012;" horiz-adv-x="618" d="M506 469h-391l32 156h392z" />
<glyph unicode="&#x2013;" horiz-adv-x="985" d="M993 512h-993l27 121h993z" />
<glyph unicode="&#x2014;" horiz-adv-x="1964" d="M1718 512h-1458l27 121h1458z" />
<glyph unicode="&#x2018;" horiz-adv-x="532" d="M424 1184q45 0 75.5 -37t30.5 -90q0 -68 -43 -109t-110 -41q-61 0 -103.5 43t-42.5 111q0 66 32 138.5t89 125.5q35 37 89.5 73t105.5 58l53 -90q-68 -29 -112 -76t-64 -106z" />
<glyph unicode="&#x2019;" horiz-adv-x="532" d="M451 1012q-35 -37 -89.5 -73t-105.5 -58l-53 90q68 29 111.5 76t64.5 106q-45 0 -76 37t-31 90q0 68 43 109t111 41q61 0 103 -43.5t42 -110.5q0 -66 -31.5 -138.5t-88.5 -125.5z" />
<glyph unicode="&#x201a;" horiz-adv-x="546" d="M219 -162q-35 -37 -89 -72.5t-105 -58.5l-54 90q68 29 112 76t64 107q-45 0 -75.5 36.5t-30.5 89.5q0 68 43 109t111 41q61 0 103 -43t42 -111q0 -66 -32 -138.5t-89 -125.5z" />
<glyph unicode="&#x201c;" horiz-adv-x="933" d="M829 1184q45 0 76 -37t31 -90q0 -68 -43 -109t-111 -41q-61 0 -103 43t-42 111q0 131 74.5 213t124 116.5t116.5 65.5l54 -90q-68 -29 -112.5 -76t-64.5 -106zM424 1184q45 0 75.5 -37t30.5 -90q0 -68 -43 -109t-110 -41q-61 0 -103.5 43t-42.5 111q0 131 75 213 t124 116.5t117 65.5l53 -90q-68 -29 -112 -76t-64 -106z" />
<glyph unicode="&#x201d;" horiz-adv-x="940" d="M856 1012q-35 -37 -89 -73t-105 -58l-54 90q68 29 112 76t64 106q-45 0 -75.5 37t-30.5 90q0 68 43 109t110 41q61 0 103.5 -43.5t42.5 -110.5q0 -66 -32 -138.5t-89 -125.5zM451 1012q-35 -37 -89.5 -73t-105.5 -58l-53 90q68 29 111.5 76t64.5 106q-45 0 -76 37t-31 90 q0 68 43 109t111 41q61 0 103 -43.5t42 -110.5q0 -66 -31.5 -138.5t-88.5 -125.5z" />
<glyph unicode="&#x201e;" horiz-adv-x="944" d="M621 -162q-35 -37 -89.5 -72.5t-105.5 -58.5l-53 90q68 29 111.5 76t64.5 107q-45 0 -76 36.5t-31 89.5q0 68 43 109t111 41q61 0 103 -43t42 -111q0 -66 -31.5 -138.5t-88.5 -125.5zM215 -162q-35 -37 -89 -72.5t-106 -58.5l-53 90q68 29 112 76t64 107 q-45 0 -75.5 36.5t-30.5 89.5q0 68 43 109t110 41q61 0 103.5 -43t42.5 -111q0 -66 -32 -138.5t-89 -125.5z" />
<glyph unicode="&#x2022;" horiz-adv-x="1024" d="M565 362q-152 0 -258 104.5t-106 258.5q0 152 105.5 257t256.5 105q152 0 257.5 -105t105.5 -257q0 -150 -104.5 -256.5t-256.5 -106.5z" />
<glyph unicode="&#x2026;" horiz-adv-x="1449" d="M1098 -27q-59 0 -98 41t-39 101q0 57 38.5 96t96.5 39q57 0 98 -39t41 -96t-40 -99.5t-97 -42.5zM627 -27q-59 0 -98.5 41t-39.5 101q0 57 39 96t97 39q57 0 98 -39t41 -96t-40 -99.5t-97 -42.5zM156 -27q-59 0 -98.5 41t-39.5 101q0 57 39 96t97 39q57 0 98 -39t41 -96 t-40 -99.5t-97 -42.5z" />
<glyph unicode="&#x202f;" horiz-adv-x="382" />
<glyph unicode="&#x2039;" horiz-adv-x="643" d="M283 477l180 -356l-123 -68l-221 447l407 430l111 -82z" />
<glyph unicode="&#x203a;" horiz-adv-x="643" d="M385 506l-180 356l123 68l221 -447l-408 -430l-110 82z" />
<glyph unicode="&#x205f;" horiz-adv-x="477" />
<glyph unicode="&#x2122;" horiz-adv-x="2027" d="M1835 528h-141l80 637l2 17l-9 -17l-325 -637h-119l-51 613l-6 55l-13 -55l-178 -613h-139l264 877h184l48 -565l4 -68l28 64l287 569h186zM942 1286h-237l-158 -758h-137l155 758h-235l22 119h625z" />
<glyph unicode="&#xe000;" horiz-adv-x="1020" d="M0 1020h1020v-1020h-1020v1020z" />
<glyph unicode="&#xfb01;" horiz-adv-x="1097" d="M1022 1210q-53 0 -89 36t-36 87q0 53 35 90t90 37q53 0 89 -35.5t36 -89.5q0 -53 -36 -89t-89 -36zM821 0h-170l218 1016l174 26zM819 1311q-70 47 -151 47q-137 0 -176 -180l-29 -158h282l-71 -121h-234l-184 -928q-51 -262 -158 -397l-131 72q47 66 79 146.5t54 193.5 l179 913h-105l23 121h104l27 137q39 199 136 262.5t214 63.5q125 0 201 -51z" />
<glyph unicode="&#xfb02;" horiz-adv-x="1097" d="M1061 1137l-194 -912q-10 -47 -11 -73q0 -49 43 -50q29 0 39 4l10 -104q-31 -14 -58.5 -18t-65.5 -4q-135 0 -136 120q0 33 11 88l200 949q20 104 21 190q0 70 -13 117l170 65q14 -43 15 -118q0 -53 -5.5 -106.5t-25.5 -147.5zM819 1311q-70 47 -151 47q-137 0 -176 -180 l-29 -158h282l-71 -121h-234l-184 -928q-51 -262 -158 -397l-131 72q47 66 79 146.5t54 193.5l179 913h-105l23 121h104l27 137q39 199 136 262.5t214 63.5q125 0 201 -51z" />
<glyph unicode="&#xfb03;" horiz-adv-x="1685" d="M1610 1210q-53 0 -89 36t-36 87q0 53 35 90t90 37q53 0 89 -35.5t36 -89.5q0 -53 -36 -89t-89 -36zM1409 0h-170l218 1016l174 26zM1407 1311q-70 47 -151 47q-137 0 -176 -180l-29 -158h282l-71 -121h-234l-184 -928q-51 -262 -158 -397l-131 72q47 66 79 146.5 t54 193.5l179 913h-105l23 121h104l27 137q39 199 136 262.5t214 63.5q125 0 201 -51zM819 1311q-70 47 -151 47q-137 0 -176 -180l-29 -158h282l-71 -121h-234l-184 -928q-51 -262 -158 -397l-131 72q47 66 79 146.5t54 193.5l179 913h-105l23 121h104l27 137 q39 199 136 262.5t214 63.5q125 0 201 -51z" />
<glyph unicode="&#xfb04;" horiz-adv-x="1685" d="M1649 1137l-194 -912q-10 -47 -11 -73q0 -49 43 -50q29 0 39 4l10 -104q-31 -14 -58.5 -18t-65.5 -4q-135 0 -136 120q0 33 11 88l200 949q20 104 21 190q0 70 -13 117l170 65q14 -43 15 -118q0 -53 -5.5 -106.5t-25.5 -147.5zM1407 1311q-70 47 -151 47 q-137 0 -176 -180l-29 -158h282l-71 -121h-234l-184 -928q-51 -262 -158 -397l-131 72q47 66 79 146.5t54 193.5l179 913h-105l23 121h104l27 137q39 199 136 262.5t214 63.5q125 0 201 -51zM819 1311q-70 47 -151 47q-137 0 -176 -180l-29 -158h282l-71 -121h-234 l-184 -928q-51 -262 -158 -397l-131 72q47 66 79 146.5t54 193.5l179 913h-105l23 121h104l27 137q39 199 136 262.5t214 63.5q125 0 201 -51z" />
</font>
</defs>
</svg>
