<?xml version="1.0" standalone="no"?>
<!DOCTYPE svg PUBLIC "-//W3C//DTD SVG 1.1//EN" "http://www.w3.org/Graphics/SVG/1.1/DTD/svg11.dtd" >
<svg xmlns="http://www.w3.org/2000/svg">
<metadata>
This is a custom SVG webfont generated by Font Squirrel.
Copyright   : Lucas
</metadata>
<defs>
<font id="webfontjSgBz87w" horiz-adv-x="1095" >
<font-face units-per-em="2048" ascent="1638" descent="-410" />
<missing-glyph horiz-adv-x="460" />
<glyph unicode=" "  horiz-adv-x="460" />
<glyph unicode="&#x09;" horiz-adv-x="460" />
<glyph unicode="&#xa0;" horiz-adv-x="460" />
<glyph unicode="!" horiz-adv-x="561" d="M369 434h-172l-52 973l273 39zM283 -20q-63 0 -105.5 44t-42.5 107q0 61 44 105.5t106 44.5q61 0 105 -44t44 -106q0 -61 -45 -106t-106 -45z" />
<glyph unicode="&#x22;" horiz-adv-x="1073" d="M641 905v547h209v-547h-209zM229 905v547h209v-547h-209z" />
<glyph unicode="#" horiz-adv-x="1153" d="M872 870l-41 -288h185v-158h-205l-59 -424h-170l59 424h-229l-60 -424h-168l58 424h-181v158h203l39 288h-182v158h205l57 422h170l-59 -422h229l59 422h168l-57 -422h184v-158h-205zM473 870l-41 -288h232l38 288h-229z" />
<glyph unicode="$" horiz-adv-x="1177" d="M623 -23v-180h-148v178q-109 0 -217 34t-203 89l90 183q98 -55 188.5 -85t205.5 -30q133 0 202.5 63.5t69.5 159.5q0 154 -195 211l-172 51q-193 57 -263 154.5t-70 224.5q0 172 107.5 283.5t295.5 138.5v156h148v-156q98 0 197 -37t185 -98l-106 -166q-96 57 -168 83 t-158 26q-119 0 -180 -53.5t-61 -139.5q0 -63 37.5 -103t126.5 -71l192 -53q168 -45 259 -150.5t91 -259.5q0 -190 -132 -311.5t-322 -141.5z" />
<glyph unicode="%" horiz-adv-x="1710" d="M1647 332q0 -158 -92.5 -254t-249.5 -96q-160 0 -250 94t-90 256q0 158 92 254t246 96q164 0 254 -92t90 -258zM578 2h-162l717 1411h163zM743 1081q0 -162 -93 -255t-249 -93q-160 0 -250 94.5t-90 255.5q0 158 92.5 254.5t245.5 96.5q162 0 253 -91.5t91 -261.5z M1149 340q0 -123 37 -174t121 -51q154 0 153 213q0 119 -38 171t-119 52q-82 0 -118 -53.5t-36 -157.5zM246 1090q0 -121 36.5 -173.5t120.5 -52.5q154 0 154 215q0 119 -37 171.5t-121 52.5q-153 0 -153 -213z" />
<glyph unicode="&#x26;" horiz-adv-x="1439" d="M1112 0l-108 109q-66 -66 -168.5 -101t-227.5 -35q-238 0 -366.5 102.5t-128.5 278.5q0 125 67.5 208t204.5 149q-100 80 -141 151.5t-41 161.5q0 143 109.5 238.5t279.5 95.5q172 0 284.5 -87t112.5 -233q0 -113 -70.5 -190.5t-209.5 -142.5l278 -271q18 47 23.5 101.5 t5.5 148.5h188q0 -143 -15 -230t-54 -169l286 -285h-309zM594 1200q-72 0 -115 -40t-43 -116q0 -51 32 -100t116 -127q168 84 168 221q0 72 -43 117t-115 45zM506 592q-152 -84 -152 -232q0 -104 67.5 -163.5t194.5 -59.5q172 0 254 99z" />
<glyph unicode="'" horiz-adv-x="589" d="M190 905v547h209v-547h-209z" />
<glyph unicode="(" horiz-adv-x="690" d="M655 -334q-139 51 -245.5 158.5t-160.5 240t-73.5 280t-19.5 314.5q0 143 16 264t64.5 242t155 240t261.5 188l58 -125q-117 -80 -169.5 -147.5t-88 -150.5t-53 -226t-17.5 -280q0 -100 9 -227.5t41 -253.5t95.5 -228t186.5 -166z" />
<glyph unicode=")" horiz-adv-x="684" d="M432 1196q47 -102 69.5 -247.5t22.5 -313.5q0 -137 -15 -264t-60.5 -261.5t-158 -257t-267.5 -186.5l-60 125q106 61 172 150.5t100.5 195t47 231.5t12.5 267q0 123 -8 200.5t-34 213t-91.5 240t-194.5 179.5l58 125q131 -51 237.5 -157.5t169.5 -239.5z" />
<glyph unicode="*" horiz-adv-x="952" d="M610 995l176 -241l-137 -105l-178 248l-172 -242l-135 103l176 237l-283 97l56 161l278 -98v295h168v-295l279 94l51 -162z" />
<glyph unicode="+" horiz-adv-x="1177" d="M690 475v-409h-209v409h-407v213h407v410h209v-410h408v-213h-408z" />
<glyph unicode="," horiz-adv-x="546" d="M170 -295l-82 102q59 18 99 60.5t40 85.5q0 25 -66.5 51.5t-66.5 128.5q0 68 46 116t116 48q80 0 132 -62.5t52 -162.5q0 -127 -74.5 -226.5t-195.5 -140.5z" />
<glyph unicode="-" horiz-adv-x="659" d="M109 453v209h448v-209h-448z" />
<glyph unicode="." horiz-adv-x="546" d="M274 -31q-68 0 -114.5 49.5t-46.5 118.5q0 68 45 115t112 47q66 0 115 -47t49 -115q0 -70 -47 -119t-113 -49z" />
<glyph unicode="/" horiz-adv-x="956" d="M285 -309h-156l539 1870h157z" />
<glyph unicode="0" d="M545 -31q-158 0 -263.5 102.5t-158.5 257t-53 353.5q0 303 135 498.5t342 195.5q139 0 236.5 -74.5t148.5 -175t73.5 -217t22.5 -233.5q0 -317 -133 -512t-350 -195zM350 365q27 -117 78 -172.5t119 -55.5q63 0 113.5 50.5t84 161t33.5 323.5q0 193 -28.5 311.5 t-78.5 170.5t-122 52q-57 0 -104.5 -45t-85 -149.5t-37.5 -327.5q-1 -200 28 -319z" />
<glyph unicode="1" d="M276 0v182h218v910l-63 -39q-34 -20 -77 -41l-155 -68l-56 121l412 289h160v-1172h190v-182h-629z" />
<glyph unicode="2" d="M942 0h-836v150q154 129 313 305t219 292.5t60 210.5q0 104 -57 162t-147 58q-68 0 -130.5 -27t-154.5 -96l-14 -11l-115 134q111 98 230.5 148t252.5 50q172 0 281.5 -109.5t109.5 -277.5q0 -98 -49 -203.5t-112.5 -181.5t-109.5 -125t-138 -139q-43 -47 -99.5 -99.5 t-72.5 -62.5q8 0 81.5 4t116.5 4h420z" />
<glyph unicode="3" d="M659 4q-162 -68 -389 -67h-37q-43 0 -102 8l-53 155q45 -8 65.5 -10t67.5 -2q133 0 232.5 29.5t188.5 105.5t89 211q0 66 -34 117t-80 67.5t-89 20.5t-137 4h-53h-15v178h17h92q63 0 169.5 14.5t106.5 168.5q0 82 -54 132t-150 50q-72 0 -139.5 -24.5t-116.5 -59.5 q-6 -4 -47 12t-54 8l-67 82q96 80 222 126t236 46q182 0 300 -98t118 -248q0 -178 -145 -268l-80 -35q88 -27 145 -78q115 -90 115 -235q0 -135 -86 -242t-236 -168z" />
<glyph unicode="4" horiz-adv-x="1103" d="M938 256l-59 4q2 -12 4 -36.5t2 -41.5v-213l-215 -39v267l2 63l-72 -4h-537v160l435 942h237l-348 -756l-48 -94l-38 -68l57 4h271l47 -2l-2 45l10 203l25 293l176 45v-426l-2 -113l-2 -40l8 -7l49 2h100v-188h-100z" />
<glyph unicode="5" d="M686 14q-154 -80 -352 -80q-53 0 -77 2.5t-77 14.5l-47 168q49 -16 88 -22.5t88 -6.5q174 0 288 93t114 237q0 80 -53.5 159.5t-206.5 79.5q-135 0 -281 -53l66 740h659l-35 -191h-416l-32 -332q41 6 61.5 8.5t52.5 2.5q111 0 198 -36t159.5 -122t72.5 -236 q0 -135 -72.5 -249t-197.5 -177z" />
<glyph unicode="6" d="M567 -31q-215 0 -352 158t-137 410q0 227 115 401q76 147 207.5 261t237 162t141.5 61.5t81 25.5l51 -156q-49 -16 -61 -21t-39 -24q-80 -31 -131 -61.5t-93 -66.5t-59.5 -53t-35.5 -42q-35 -37 -70 -93.5t-66 -168.5q96 84 254 84q162 0 293 -110.5t131 -309.5 q0 -195 -133 -326t-334 -131zM735 598q-59 70 -160 70q-113 0 -241 -86l-2 -15l-4 -100q0 -88 15 -143.5t64.5 -119t153.5 -63.5q106 0 168 76t62 205q-1 115 -56 176z" />
<glyph unicode="7" d="M987 1139l-90 -140q-70 -109 -86 -139q-80 -123 -154.5 -281.5t-118.5 -279.5t-63 -205l-20 -112l-258 -66q31 131 56.5 214t64 185.5t85 204t111 224t134 227t132.5 180.5l-129 -4h-540l51 199h868z" />
<glyph unicode="8" d="M793 20q-113 -59 -258 -59q-182 0 -333 95.5t-151 291.5q0 135 79 225.5t183 126.5q-92 37 -155.5 120t-63.5 194q0 86 43 162.5t138.5 138t283.5 61.5q197 0 316.5 -93t119.5 -245q0 -174 -101 -230t-133 -69.5t-38 -15.5q39 -10 98.5 -43t85.5 -57q68 -43 104 -108.5 t36 -141.5q0 -117 -68.5 -211.5t-185.5 -141.5zM539 1212q-98 0 -157.5 -49t-59.5 -129q0 -49 22.5 -85t65.5 -62.5t72.5 -43t76.5 -34.5q70 35 133.5 90t63.5 139q0 80 -57.5 127t-159.5 47zM731 481q-72 57 -264 137q-100 -55 -135 -120q-37 -55 -37 -133 q0 -109 69.5 -172.5t192.5 -63.5q106 0 174 57.5t68 147.5q0 94 -68 147z" />
<glyph unicode="9" d="M721 168q-121 -119 -241 -176.5t-163 -72.5t-100 -28l-119 138q86 16 189.5 65t208 134t150.5 161t69 131q-96 -55 -205 -55q-184 0 -306 126t-122 316q0 203 138 337t343 134q201 0 334 -137t133 -393q0 -395 -309 -680zM555 1202q-102 0 -163.5 -77.5t-61.5 -213.5 q0 -125 60.5 -197.5t164.5 -72.5q111 0 209 90q12 43 16 77t4 79q0 147 -61.5 231t-167.5 84z" />
<glyph unicode=":" horiz-adv-x="620" d="M311 922q63 0 110.5 -47.5t47.5 -112.5q0 -66 -47 -113t-113 -47t-110.5 45t-44.5 111q0 68 45.5 116t111.5 48zM307 -29q-66 0 -110.5 45t-44.5 113t46 116t113 48q66 0 111 -47t45 -117q0 -66 -46 -112t-114 -46z" />
<glyph unicode=";" horiz-adv-x="630" d="M461 760q0 -66 -45 -113t-113 -47q-66 0 -113 47t-47 113q0 68 45 115t111 47q68 0 115 -47t47 -115zM217 -299l-82 100q61 20 100 61.5t39 82.5q0 18 -66.5 60t-66.5 122q0 70 46 118t116 48q82 0 134 -64.5t52 -162.5q0 -123 -75.5 -223.5t-196.5 -141.5z" />
<glyph unicode="&#x3c;" horiz-adv-x="782" d="M526 25l-450 587l450 590l181 -145l-338 -445l338 -446z" />
<glyph unicode="=" horiz-adv-x="1361" d="M133 705v206h1096v-206h-1096zM133 332v207h1096v-207h-1096z" />
<glyph unicode="&#x3e;" horiz-adv-x="782" d="M270 25l-180 141l336 446l-336 445l180 145l449 -590z" />
<glyph unicode="?" horiz-adv-x="946" d="M625 797q-74 -51 -106 -117t-32 -143q0 -39 7 -80h-193q-16 76 -16 129q0 178 104 259l156 122q53 51 53 118q0 76 -49 117t-129 41q-63 0 -128 -26.5t-114 -65.5l-98 145q59 53 162.5 97.5t222.5 44.5q152 0 255 -89t103 -237q0 -125 -56 -192.5t-142 -122.5zM420 -27 q-63 0 -107.5 46.5t-44.5 111.5q0 66 43 109t111 43q61 0 107 -44t46 -108q0 -63 -44.5 -110.5t-110.5 -47.5z" />
<glyph unicode="@" horiz-adv-x="1638" d="M1098 299q-72 0 -110 34t-38 87h-10q-51 -55 -111.5 -88t-146.5 -33q-129 0 -209 94t-80 240q0 201 119 351.5t311 150.5q80 0 135.5 -32t85.5 -104h11l22 105h164l-111 -463l-12 -67q-6 -34 -6 -60q0 -55 57 -55q84 0 153 102.5t69 259.5q0 238 -156 377t-391 139 q-260 0 -427 -175t-167 -437q0 -270 177 -441t439 -171q125 0 241 47t193 125h183q-104 -152 -270 -236t-357 -84q-330 0 -555 216t-225 544q0 324 224 544t548 220q287 0 497.5 -181.5t210.5 -476.5q0 -268 -153 -400t-305 -132zM834 977q-111 0 -182.5 -99.5t-71.5 -226.5 q0 -82 39.5 -137t119.5 -55q123 0 189.5 100t66.5 221q0 84 -43.5 140.5t-117.5 56.5z" />
<glyph unicode="A" horiz-adv-x="1179" d="M924 0l-115 373h-459l-114 -373h-244l465 1419h272l453 -1419h-258zM588 1174l-89 -311q-60 -206 -91 -294h348q-6 14 -85 296t-83 309z" />
<glyph unicode="B" horiz-adv-x="1241" d="M590 0h-412v1417h375q164 0 232.5 -12t184 -86t115.5 -250q0 -117 -62 -195.5t-181 -113.5q162 -39 231.5 -138.5t69.5 -220.5q0 -207 -139.5 -304t-413.5 -97zM723 1208q-23 8 -51.5 12.5t-81.5 4.5h-182v-387h200q72 0 107 9t65.5 41t44 72.5t13.5 71.5q0 61 -32 109.5 t-83 66.5zM750 631q-41 12 -132 12h-206v-448h213q129 0 193.5 63.5t64.5 165.5q0 76 -37 133.5t-96 73.5z" />
<glyph unicode="C" horiz-adv-x="1124" d="M698 -23q-279 0 -444.5 201t-165.5 510q0 254 87 419t224.5 251t305.5 86q219 0 352 -111l-109 -155q-109 80 -241 79q-92 0 -164 -43t-132.5 -149.5t-60.5 -349.5q0 -231 50.5 -342t132 -161t188.5 -50q141 0 254 90l110 -150q-164 -125 -387 -125z" />
<glyph unicode="D" horiz-adv-x="1298" d="M1034 199q-88 -113 -197.5 -156t-308.5 -43h-350v1417h295q205 0 332 -44t253 -189.5t126 -478.5q0 -158 -38 -286t-112 -220zM831 1108q-49 68 -109 95.5t-157 27.5h-149v-1038h155q184 0 267.5 120.5t83.5 366.5q0 156 -19 256t-72 172z" />
<glyph unicode="E" horiz-adv-x="1077" d="M178 0v1417h787l-31 -192h-520v-387h436v-195h-432v-442h567v-201h-807z" />
<glyph unicode="F" horiz-adv-x="952" d="M899 1225h-485v-385h395v-191h-395v-649h-236v1417h750z" />
<glyph unicode="G" horiz-adv-x="1300" d="M713 -18q-301 0 -461 196.5t-160 519.5q0 430 206 584t411 154q248 0 421 -150l-118 -147q-141 109 -299 108q-186 0 -272.5 -148.5t-86.5 -412.5q0 -295 73 -381t145.5 -114.5t154.5 -28.5q104 0 188 45v368h-241l-33 193h514v-668q-196 -118 -442 -118z" />
<glyph unicode="H" horiz-adv-x="1316" d="M895 0v655h-483v-655h-234v1417h234v-569h483v569h238v-1417h-238z" />
<glyph unicode="I" horiz-adv-x="598" d="M178 0v1417h242v-1417h-242z" />
<glyph unicode="J" horiz-adv-x="595" d="M332 -133q-41 -57 -105.5 -102.5t-134.5 -71.5l-110 125q57 33 99 73.5t62.5 81.5t27.5 101.5t7 167.5v1175h238v-1155q0 -172 -17.5 -250.5t-66.5 -144.5z" />
<glyph unicode="K" horiz-adv-x="1222" d="M1171 1417l-491 -657l524 -760h-307l-477 756l461 661h290zM178 0v1417h240v-1417h-240z" />
<glyph unicode="L" horiz-adv-x="966" d="M903 0h-725v1417h240v-1222h524z" />
<glyph unicode="M" horiz-adv-x="1687" d="M1325 0l-65 879l-11 239q-14 -61 -21 -96t-34 -125l-258 -897h-201l-235 858l-34 134t-28 128q-6 -78 -10 -146.5t-4 -117.5l-62 -856h-231l129 1417h313l218 -803l26 -106q12 -51 27 -129q12 90 51 231l223 807h314l124 -1417h-231z" />
<glyph unicode="N" horiz-adv-x="1323" d="M891 0l-318 666q-57 117 -108 236.5t-72 182.5l-6 -6q6 -66 10 -188.5t4 -204.5l9 -686h-232v1417h266l344 -692q43 -86 86.5 -196.5t59.5 -168.5l6 7q-6 63 -13 191t-7 212l-5 647h224v-1417h-248z" />
<glyph unicode="O" horiz-adv-x="1368" d="M94 709q0 346 161 537.5t431 191.5q289 0 440.5 -203t151.5 -528q0 -336 -153.5 -533t-428.5 -197q-295 0 -448.5 201t-153.5 531zM1010 692q0 279 -73 421t-253 142q-172 0 -250 -134t-78 -398q0 -283 79 -425t255 -142q162 0 241 126.5t79 409.5z" />
<glyph unicode="P" horiz-adv-x="1153" d="M651 541h-239v-541h-234v1417h377q156 0 225.5 -14t199.5 -91t130 -319q0 -203 -131 -327.5t-328 -124.5zM412 1227v-498h184q254 0 254 250q0 119 -61.5 183.5t-192.5 64.5h-184z" />
<glyph unicode="Q" horiz-adv-x="1366" d="M1364 -238q-23 -10 -56.5 -16t-58.5 -6q-68 0 -135 28.5t-136 73.5t-138.5 80t-153.5 58q-285 0 -439.5 202.5t-154.5 528.5q0 342 161 534.5t429 192.5q285 0 439.5 -197t154.5 -534q0 -233 -75 -398.5t-216 -253.5q45 -18 90 -45l71 -42q26 -15 73 -35.5t118 -20.5 q47 0 90 8zM1006 692q0 289 -73 426t-253 137q-168 0 -247 -132t-79 -400q0 -307 84 -436t250 -129q160 0 239 123.5t79 410.5z" />
<glyph unicode="R" horiz-adv-x="1210" d="M866 0l-123 219q-74 131 -131 214t-94 120t-57.5 48t-50.5 11v-612h-232v1417h432q227 0 344 -114.5t117 -290.5q0 -166 -97 -277.5t-255 -111.5q35 -18 95 -100.5t124 -182.5l209 -340h-281zM410 1227v-449h120q172 0 233.5 61.5t61.5 170.5q0 111 -66.5 164t-219.5 53 h-129z" />
<glyph unicode="S" horiz-adv-x="1177" d="M522 -27q-254 0 -465 127l90 181q102 -59 190.5 -88t192.5 -29q131 0 205 59.5t74 165.5q0 152 -211 211l-152 43q-102 29 -167.5 69t-115.5 114.5t-50 193.5q0 186 133 303t348 117q256 0 448 -135l-106 -166q-182 109 -334 108q-106 0 -168.5 -52t-62.5 -140 q0 -68 42 -106t146 -68l168 -50q160 -47 254 -148t94 -255q0 -188 -146.5 -321.5t-406.5 -133.5z" />
<glyph unicode="T" horiz-adv-x="1040" d="M989 1221h-356v-1221h-236v1221h-358v196h981z" />
<glyph unicode="U" horiz-adv-x="1325" d="M662 -25q-262 0 -376 115t-114 305v1022h238v-952q0 -160 58 -224.5t194 -64.5q256 0 256 289v952h235v-1020q0 -197 -129 -309.5t-362 -112.5z" />
<glyph unicode="V" horiz-adv-x="1189" d="M694 -6h-219l-477 1423h258l256 -803q37 -117 51.5 -188.5t22.5 -95.5q14 59 24.5 95t65.5 202l260 790h246z" />
<glyph unicode="W" horiz-adv-x="1726" d="M1352 -8h-271l-145 657q-25 113 -41 223.5t-29 186.5l-25 -136q-9 -50 -53 -268l-137 -663h-276l-338 1425h252l141 -659q31 -147 49.5 -275.5t26.5 -179.5l34 190q17 93 50 248l147 676h264l148 -704l35 -194l35 -206l43 233q23 124 45 228l135 643h246z" />
<glyph unicode="X" horiz-adv-x="1150" d="M864 0l-293 561l-282 -561h-289l434 760l-381 657h287l227 -438l224 438h278l-360 -641l438 -776h-283z" />
<glyph unicode="Y" horiz-adv-x="1093" d="M668 571v-571h-244v573l-447 844h285l213 -444q23 -47 42 -97l34 -85l33 76q16 40 45 102l217 448h274z" />
<glyph unicode="Z" horiz-adv-x="1048" d="M934 0h-864v172l553 920q35 59 58.5 92t35.5 47q-27 -4 -64 -6t-90 -2h-467l54 194h831v-178l-551 -930q-25 -41 -43 -67.5t-39 -53.5l141 5h504z" />
<glyph unicode="[" horiz-adv-x="559" d="M45 -317v1818h387v-155h-186v-1512h186v-151h-387z" />
<glyph unicode="\" horiz-adv-x="800" d="M602 -100l-610 1589l186 63l613 -1591z" />
<glyph unicode="]" horiz-adv-x="573" d="M123 -317v151h186v1512h-186v155h387v-1818h-387z" />
<glyph unicode="^" horiz-adv-x="1363" d="M961 651l-283 586l-283 -586h-229l397 799h230l397 -799h-229z" />
<glyph unicode="_" horiz-adv-x="1024" d="M0 -256v102h1024v-102h-1024z" />
<glyph unicode="`" horiz-adv-x="692" d="M520 1147l-450 209l102 190l418 -270z" />
<glyph unicode="a" horiz-adv-x="1069" d="M809 0l-94 260h-371l-92 -260h-236l404 1090h246l387 -1090h-244zM535 879q-8 -37 -54 -185l-80 -260h263l-91 298q-34 118 -38 147z" />
<glyph unicode="b" horiz-adv-x="1118" d="M829 35q-45 -18 -105 -26.5t-140 -8.5h-406v1085h402q80 0 131 -8t111.5 -33.5t104.5 -88t44 -142.5q0 -100 -58.5 -158.5t-121.5 -76.5q45 -14 76.5 -30t67.5 -48.5t59.5 -83.5t23.5 -111q0 -92 -48.5 -162.5t-140.5 -107.5zM682 877q-45 29 -129 28h-154v-252h156 q133 0 156.5 44t23.5 79q0 68 -53 101zM403 473v-295h160q86 0 145.5 30t59.5 120t-62.5 117.5t-140.5 27.5h-162z" />
<glyph unicode="c" horiz-adv-x="983" d="M621 -18q-115 0 -208.5 30.5t-210 143t-116.5 366.5q0 203 81 331t198.5 191.5t261.5 63.5q90 0 171 -22.5t134 -63.5l-107 -148q-94 59 -194 60q-72 0 -131.5 -31t-109.5 -100.5t-50 -247.5q0 -119 15.5 -185.5t78 -141t205.5 -74.5q111 0 211 65l106 -135 q-132 -102 -335 -102z" />
<glyph unicode="d" horiz-adv-x="1163" d="M715 1057q156 -47 246 -168t90 -348t-107.5 -358.5t-200 -153t-144.5 -25.5t-122 -4h-301v1085h242q102 0 170 -5t127 -23zM737 807q-70 106 -217 106h-117v-735h144q18 0 43.5 2t79 29t92.5 100.5t39 212.5q-1 185 -64 285z" />
<glyph unicode="e" horiz-adv-x="1001" d="M178 0v1085h684l-33 -178h-426v-250h357v-180h-354v-289h471v-188h-699z" />
<glyph unicode="f" horiz-adv-x="884" d="M799 909h-398v-254h322v-180h-322v-475h-225v1085h651z" />
<glyph unicode="g" horiz-adv-x="1155" d="M637 -12q-133 0 -232.5 40t-172 118.5t-105.5 173t-33 219.5q0 311 174 437t365 126q213 0 377 -121l-117 -137q-63 41 -122.5 62.5t-133.5 21.5q-197 0 -244 -126t-47 -278q0 -246 96.5 -310t204.5 -64q37 0 74 8t70 20v248h-193l-33 178h459v-522q-86 -45 -185.5 -69.5 t-201.5 -24.5z" />
<glyph unicode="h" horiz-adv-x="1179" d="M774 0v483h-373v-483h-227v1085h227v-419h373v419h230v-1085h-230z" />
<glyph unicode="i" horiz-adv-x="589" d="M178 0v1085h234v-1085h-234z" />
<glyph unicode="j" horiz-adv-x="587" d="M397 6q-23 -90 -99.5 -156.5t-174.5 -101.5l-107 115q104 59 137 121.5t33 203.5v897h228v-880q-1 -133 -17 -199z" />
<glyph unicode="k" horiz-adv-x="1110" d="M786 0l-383 567v-567h-231v1085h231v-493l365 493h283l-404 -501l438 -584h-299z" />
<glyph unicode="l" horiz-adv-x="862" d="M805 0h-627v1085h228v-901h442z" />
<glyph unicode="m" horiz-adv-x="1497" d="M1151 0l-47 608l-12 211l-58 -205l-192 -614h-195l-182 604q-4 14 -25.5 101.5t-29.5 125.5l-13 -227l-45 -604h-225l115 1085h293l165 -557q16 -53 25.5 -91t26.5 -120q4 33 19 95.5t32 117.5l168 555h295l108 -1085h-223z" />
<glyph unicode="n" horiz-adv-x="1189" d="M778 0l-264 502l-80 158q-39 81 -53 120l8 -305l8 -475h-219v1085h252l272 -491q37 -66 69 -135.5t48 -116.5q0 16 -8 131t-8 152l-4 460h213v-1085h-234z" />
<glyph unicode="o" horiz-adv-x="1239" d="M260 119q-156 156 -156 422q0 262 137.5 411.5t376.5 149.5q252 0 384.5 -152.5t132.5 -402.5q0 -252 -91.5 -365.5t-187.5 -155.5t-227 -42q-234 0 -369 135zM848 305q29 86 29 234q0 96 -8.5 153.5t-50.5 149.5t-206 92q-147 0 -201.5 -105.5t-54.5 -283.5 q0 -197 57.5 -297.5t209.5 -100.5q88 0 142 36t83 122z" />
<glyph unicode="p" horiz-adv-x="1081" d="M831 461q-66 -37 -125 -50.5t-153 -13.5h-147v-397h-228v1085h314q150 0 211 -11t131.5 -47t115.5 -108.5t45 -166.5q0 -100 -45 -176t-119 -115zM406 911v-336h149q113 0 153 46.5t40 123.5q0 74 -47.5 120t-161.5 46h-133z" />
<glyph unicode="q" horiz-adv-x="1255" d="M1241 -182q-27 -18 -46 -27.5t-50 -9.5q-84 0 -260 90t-193.5 96t-48.5 12.5t-53 6.5q-102 0 -194.5 38.5t-195 150.5t-102.5 366q0 256 140.5 408.5t373.5 152.5q123 0 221.5 -42t196.5 -152.5t98 -360.5q0 -236 -78.5 -342.5t-144.5 -151.5q29 -12 50 -24l55 -32 q33 -19 95 -43t124 -24l61 4zM840 305q31 86 30 234q0 96 -8 153.5t-50 149.5t-204 92q-70 0 -123 -32t-94 -106.5t-41 -250.5q0 -215 59.5 -306.5t206.5 -91.5q167 0 224 158z" />
<glyph unicode="r" horiz-adv-x="1105" d="M768 0l-106 174q-80 131 -114 176t-66.5 74t-80.5 29v-453h-223v1085h367q111 0 186.5 -17t156.5 -85t81 -215q0 -125 -75 -209t-194 -94q25 -18 61 -64.5t62 -84.5l68 -97l149 -219h-272zM401 913v-299h99q137 0 185 38t48 114q0 102 -59.5 120.5t-89 22.5t-74.5 4h-109 z" />
<glyph unicode="s" horiz-adv-x="1071" d="M770 41q-59 -31 -137 -48.5t-160 -17.5q-209 0 -401 97l82 174q88 -43 165.5 -64.5t165.5 -21.5q86 0 154 31.5t68 105.5q0 53 -40 88t-132 57l-146 37q-160 39 -216 128t-56 177q0 147 117.5 240.5t306.5 93.5q111 0 218 -28.5t183 -81.5l-106 -158q-150 84 -289 84 q-82 0 -132 -33t-50 -90q0 -47 31.5 -74.5t115.5 -48.5l145 -35q72 -18 128.5 -45.5t116 -87t59.5 -180.5q0 -96 -49.5 -174t-141.5 -125z" />
<glyph unicode="t" horiz-adv-x="946" d="M889 903h-295v-903h-227v903h-299v182h860z" />
<glyph unicode="u" horiz-adv-x="1198" d="M934 86q-51 -49 -134 -77.5t-196 -28.5q-145 0 -240.5 41.5t-134.5 101t-49 110t-10 136.5v716h229v-682q0 -113 32 -176t169 -63q113 0 146.5 42t43 77.5t9.5 113.5v688h229v-708q0 -123 -19.5 -180.5t-74.5 -110.5z" />
<glyph unicode="v" horiz-adv-x="1099" d="M647 -6h-203l-415 1091h247l199 -532l36 -108.5t38 -127.5l32 116q15 58 40 118l215 534h235z" />
<glyph unicode="w" horiz-adv-x="1558" d="M1204 -6h-250l-112 434q-27 102 -43.5 198.5t-20.5 149.5l-27 -153q-17 -94 -40 -189l-103 -440h-256l-293 1091h240l111 -426q68 -258 67 -380q16 113 28.5 185.5t43.5 186.5l113 434h245l117 -483q8 -35 26.5 -129t30.5 -180q4 43 25.5 158.5t46.5 212.5l107 421h235z " />
<glyph unicode="x" horiz-adv-x="1073" d="M774 0l-231 391l-230 -391h-282l377 582l-326 503h274l181 -299l176 299h272l-313 -491l377 -594h-275z" />
<glyph unicode="y" horiz-adv-x="1036" d="M631 444v-444h-236v444l-379 641h273l168 -307l65 -131l29 71q10 26 33 64l170 303h266z" />
<glyph unicode="z" horiz-adv-x="995" d="M848 0h-744v158l459 665q12 18 31.5 44t36.5 44l-121 -4h-385l55 180h715v-159l-453 -670l-31 -46q-15 -22 -30 -36l108 2h422z" />
<glyph unicode="{" horiz-adv-x="747" d="M506 -317q-104 0 -173 70.5t-69 209.5v356q0 90 -69.5 134.5t-135.5 44.5v186q68 0 136.5 45t68.5 135v359q0 137 68.5 207.5t173.5 70.5h184v-186h-100q-76 0 -100.5 -40t-24.5 -106v-344q0 -119 -57.5 -170t-133.5 -61v-8q80 -8 135.5 -55.5t55.5 -172.5v-344 q0 -68 23.5 -107.5t101.5 -39.5h100v-184h-184z" />
<glyph unicode="|" horiz-adv-x="454" d="M125 -35v1585h205v-1585h-205z" />
<glyph unicode="}" horiz-adv-x="749" d="M494 319v-358q0 -137 -69 -207.5t-173 -70.5h-184v184h98q76 0 101.5 41t25.5 106v342q0 127 55 174.5t137 55.5v10q-78 8 -135 57t-57 170v346q0 66 -24.5 106t-102.5 40h-98v186h186q100 0 170 -71.5t70 -208.5v-357q0 -88 68.5 -134t135.5 -46v-186q-70 0 -137 -44.5 t-67 -134.5z" />
<glyph unicode="~" horiz-adv-x="1363" d="M891 444q-47 0 -86 13.5t-115 46.5l-136 58q-60 26 -101 26q-70 0 -107 -42t-72 -97l-65 172q45 80 103.5 129t148.5 49q43 0 76.5 -9.5t142.5 -56.5q55 -27 115.5 -52.5t103.5 -25.5q55 0 94 37t84 103l66 -170q-45 -82 -103.5 -131.5t-148.5 -49.5z" />
<glyph unicode="&#xa1;" horiz-adv-x="555" d="M272 1139q-61 0 -103 44t-42 105q0 66 43 109t106 43q61 0 104.5 -43t43.5 -107q0 -63 -44.5 -107t-107.5 -44zM139 -29l51 1010h170l54 -969z" />
<glyph unicode="&#xa2;" horiz-adv-x="878" d="M627 -16v-193h-154v193q-180 20 -277.5 159.5t-97.5 366.5q0 244 109.5 382t263.5 167v180h156v-178q47 0 107.5 -30t115.5 -79l-111 -147q-35 35 -82 58.5t-100 23.5q-106 0 -162.5 -106.5t-56.5 -282.5q0 -164 58.5 -256t166.5 -92q61 0 116.5 27.5t92.5 74.5l107 -137 q-61 -61 -119.5 -91t-132.5 -40z" />
<glyph unicode="&#xa3;" horiz-adv-x="1198" d="M1020 1165q-96 92 -199 92q-135 0 -192.5 -81.5t-57.5 -217.5v-127h324v-176h-324v-456h512v-199h-966v199h205v456h-197v176h197v158q0 215 129 350.5t348 135.5q113 0 212 -31t175 -101z" />
<glyph unicode="&#xa4;" horiz-adv-x="915" d="M629 78l-51 79q-27 42 -33 56q-16 -6 -39 -8t-53 -2q-55 0 -103 12l-28 -55l-50 -82l-188 115l90 137q-63 84 -63 223q0 137 67 227l-94 138l199 114l79 -135q27 4 43.5 6t43.5 2q57 0 98 -12l26 55l50 84l188 -114l-88 -136q31 -33 50.5 -95t19.5 -138q0 -131 -66 -215 l94 -141zM328 713q-31 -51 -31 -150q0 -127 38 -177t118 -50q152 0 151 213q0 139 -47 180t-111 41q-85 0 -118 -57z" />
<glyph unicode="&#xa5;" horiz-adv-x="1144" d="M807 813h252v-170h-340l-39 -72v-108h379v-170h-379v-293h-244v293h-366v170h366v108l-41 72h-325v170h241l-321 604h284l213 -444q29 -61 49 -112l27 -70l33 76q16 40 45 102l217 448h275z" />
<glyph unicode="&#xa7;" horiz-adv-x="1206" d="M885 309q127 -96 127 -250q0 -176 -143.5 -269t-325.5 -93q-154 0 -269.5 59.5t-177.5 192.5l217 104q23 -76 89.5 -114.5t150.5 -38.5q76 0 133 34.5t57 106.5q0 63 -58 103t-154.5 80t-152.5 69t-115.5 69.5t-96.5 104t-37 143.5q0 102 49 174t146 125 q-70 45 -108 104.5t-38 135.5q0 162 127 251t293 89q135 0 249 -49t169 -158l-213 -121q-23 57 -79 91t-120 34q-68 0 -118 -34.5t-50 -102.5q0 -47 26.5 -80t84.5 -61l207 -93q150 -70 229.5 -141.5t79.5 -195.5q0 -86 -48 -157t-130 -112zM668 711l-195 92 q-53 -25 -83 -58.5t-30 -85.5q0 -72 42 -107.5t126 -74.5l203 -94q98 49 98 149q0 63 -44.5 104.5t-116.5 74.5z" />
<glyph unicode="&#xa8;" horiz-adv-x="1021" d="M723 1147q-57 0 -97 42t-40 101q0 61 39 102.5t100 41.5q57 0 97 -42t40 -102q0 -57 -41 -100t-98 -43zM295 1147q-57 0 -97 42t-40 101q0 61 39 102.5t98 41.5q57 0 97 -42t40 -102q0 -59 -40 -101t-97 -42z" />
<glyph unicode="&#xa9;" horiz-adv-x="1638" d="M815 -35q-313 0 -535.5 222.5t-222.5 539.5t222.5 539.5t535.5 222.5t535.5 -222.5t222.5 -539.5t-222.5 -539.5t-535.5 -222.5zM815 1337q-244 0 -414 -176t-170 -434q0 -254 170 -434t414 -180t415 179t171 435t-170 433t-416 177zM977 991q-66 47 -135 47 q-94 0 -143.5 -72.5t-49.5 -220.5q0 -168 44 -246.5t155 -78.5q78 0 147 55l78 -108q-98 -80 -237 -80q-174 0 -277.5 118.5t-103.5 305.5q0 158 53 258t140 153.5t192 53.5q63 0 120.5 -18.5t94.5 -49.5z" />
<glyph unicode="&#xaa;" horiz-adv-x="817" d="M662 743q-39 16 -68 43t-43 66q-86 -98 -215 -98t-192.5 63.5t-63.5 171.5q0 268 383 268h53v56q0 68 -24.5 96.5t-83.5 28.5q-53 0 -111.5 -22.5t-122.5 -65.5l-74 123q86 49 169 76.5t163 27.5q74 0 123 -19.5t78 -52t40 -76t11 -100.5l-6 -293q0 -82 12 -115.5 t55 -66.5zM59 479v135h701v-135h-701zM481 1147q-135 0 -178 -39t-43 -111q0 -121 109 -120q84 0 141 81l2 185z" />
<glyph unicode="&#xab;" horiz-adv-x="1067" d="M868 41l-311 463l311 465l152 -103l-238 -362l238 -361zM414 41l-310 463l310 465l151 -103l-235 -362l235 -361z" />
<glyph unicode="&#xac;" horiz-adv-x="1196" d="M782 135v287h-651v190h870v-477h-219z" />
<glyph unicode="&#xad;" horiz-adv-x="659" d="M109 453v209h448v-209h-448z" />
<glyph unicode="&#xae;" horiz-adv-x="1638" d="M815 -35q-313 0 -535.5 222.5t-222.5 539.5t222.5 539.5t535.5 222.5t535.5 -222.5t222.5 -539.5t-222.5 -539.5t-535.5 -222.5zM815 1337q-244 0 -414 -176t-170 -434q0 -254 170 -434t414 -180t415 179t171 435t-170 433t-416 177zM866 1159q115 0 183.5 -68.5 t68.5 -181.5q0 -96 -55 -165.5t-135 -69.5l35 -37q31 -39 90 -138l114 -194h-202l-80 141q-63 117 -91 158t-51 51l-26 7v-357h-168v854h317zM717 791h57q98 0 130 30.5t32 83.5q0 82 -45 99.5t-113 17.5h-61v-231z" />
<glyph unicode="&#xaf;" horiz-adv-x="460" d="M-301 123v144h605v-144h-605z" />
<glyph unicode="&#xb0;" horiz-adv-x="802" d="M745 1081q0 -162 -91 -255t-251 -93t-250 94.5t-90 255.5q0 158 92.5 254.5t245.5 96.5q162 0 253 -93.5t91 -259.5zM248 1090q0 -225 158 -226q154 0 153 215q0 119 -37 171.5t-121 52.5q-153 0 -153 -213z" />
<glyph unicode="&#xb1;" horiz-adv-x="931" d="M571 567v-293h-219v293h-307v205h307v281h219v-281h308v-205h-308zM49 0v205h825v-205h-825z" />
<glyph unicode="&#xb2;" d="M942 0h-836v150q154 129 313 305t219 292.5t60 210.5q0 104 -57 162t-147 58q-68 0 -130.5 -27t-154.5 -96l-14 -11l-115 134q111 98 230.5 148t252.5 50q172 0 281.5 -109.5t109.5 -277.5q0 -98 -49 -203.5t-112.5 -181.5t-109.5 -125t-138 -139q-43 -47 -99.5 -99.5 t-72.5 -62.5q8 0 81.5 4t116.5 4h420z" />
<glyph unicode="&#xb3;" d="M659 4q-162 -68 -389 -67h-37q-43 0 -102 8l-53 155q45 -8 65.5 -10t67.5 -2q133 0 232.5 29.5t188.5 105.5t89 211q0 66 -34 117t-80 67.5t-89 20.5t-137 4h-53h-15v178h17h92q63 0 169.5 14.5t106.5 168.5q0 82 -54 132t-150 50q-72 0 -139.5 -24.5t-116.5 -59.5 q-6 -4 -47 12t-54 8l-67 82q96 80 222 126t236 46q182 0 300 -98t118 -248q0 -178 -145 -268l-80 -35q88 -27 145 -78q115 -90 115 -235q0 -135 -86 -242t-236 -168z" />
<glyph unicode="&#xb4;" horiz-adv-x="692" d="M608 1356l-450 -209l-70 129l418 270z" />
<glyph unicode="&#xb5;" horiz-adv-x="1099" d="M858 -35q-72 53 -94 129q-109 -125 -297 -125l-47 6q-14 4 -28.5 10.5t-24.5 16.5l2 -47v-80v-262l-217 -53v1458l221 43v-701q0 -129 27.5 -157.5t59.5 -43t60 -14.5q63 0 122.5 39t88.5 99v731l215 43v-766q0 -76 14.5 -126t53.5 -89z" />
<glyph unicode="&#xb6;" horiz-adv-x="1247" d="M983 -256v1571h-235v-1571h-164v938q-193 0 -315 105.5t-122 267.5q0 197 125 297t344 100h529v-1708h-162z" />
<glyph unicode="&#xb8;" horiz-adv-x="878" d="M453 -406q-41 0 -88.5 15.5t-81.5 34.5l53 110q31 -14 56.5 -22t53.5 -8q25 0 44.5 15t19.5 36q0 53 -66 53q-12 0 -21 -2l-38 -8l-10 43l43 164l131 -15l-29 -84q74 -8 109 -51t35 -104q0 -74 -55.5 -125.5t-155.5 -51.5z" />
<glyph unicode="&#xb9;" d="M276 0v182h218v910l-63 -39q-34 -20 -77 -41l-155 -68l-56 121l412 289h160v-1172h190v-182h-629z" />
<glyph unicode="&#xba;" horiz-adv-x="868" d="M770 1155q0 -180 -90 -290.5t-252 -110.5q-156 0 -248 108.5t-92 294.5q0 184 92 295t246 111q164 0 254 -111t90 -297zM82 479v135h698v-135h-698zM281 1169q0 -154 36.5 -216t114.5 -62q74 0 110 62.5t36 199.5q0 152 -38 211t-112 59q-78 0 -112.5 -61.5t-34.5 -192.5 z" />
<glyph unicode="&#xbb;" horiz-adv-x="1067" d="M1020 504l-311 -463l-152 102l238 361l-238 362l152 103zM565 504l-309 -463l-154 102l240 361l-240 362l154 103z" />
<glyph unicode="&#xbf;" horiz-adv-x="901" d="M319 1284q0 66 45.5 111t108.5 45t108.5 -45t45.5 -111q0 -63 -45 -108.5t-111 -45.5q-61 0 -106.5 45.5t-45.5 108.5zM430 -23q-152 0 -254 88.5t-102 235.5q0 125 57 194.5t131 120t110 117t36 139.5q0 27 -2 47l-5 37h193q4 -14 9 -50t5 -81q0 -180 -113.5 -265 t-155.5 -122t-42 -108q0 -76 49 -117t127 -41q66 0 131.5 26.5t110.5 65.5l98 -145q-59 -53 -161.5 -97.5t-221.5 -44.5z" />
<glyph unicode="&#xc0;" horiz-adv-x="1179" d="M924 0l-115 373h-459l-114 -373h-244l465 1419h272l453 -1419h-258zM588 1174l-89 -311q-60 -206 -91 -294h348q-6 14 -85 296t-83 309zM692 1475l-450 209l102 190l418 -270z" />
<glyph unicode="&#xc1;" horiz-adv-x="1179" d="M924 0l-115 373h-459l-114 -373h-244l465 1419h272l453 -1419h-258zM588 1174l-89 -311q-60 -206 -91 -294h348q-6 14 -85 296t-83 309zM909 1684l-450 -209l-70 129l418 270z" />
<glyph unicode="&#xc2;" horiz-adv-x="1179" d="M924 0l-115 373h-459l-114 -373h-244l465 1419h272l453 -1419h-258zM588 1174l-89 -311q-60 -206 -91 -294h348q-6 14 -85 296t-83 309zM858 1465l-283 168l-274 -168l-78 125l356 278l361 -278z" />
<glyph unicode="&#xc3;" horiz-adv-x="1179" d="M924 0l-115 373h-459l-114 -373h-244l465 1419h272l453 -1419h-258zM588 1174l-89 -311q-60 -206 -91 -294h348q-6 14 -85 296t-83 309zM729 1706q43 0 70.5 17.5t66.5 58.5l74 -125q-55 -68 -109.5 -101.5t-138.5 -33.5q-63 0 -136 42t-130 42q-43 0 -70 -17.5 t-66 -58.5l-73 125q57 72 108 103.5t137 31.5q63 0 136.5 -42t130.5 -42z" />
<glyph unicode="&#xc4;" horiz-adv-x="1179" d="M924 0l-115 373h-459l-114 -373h-244l465 1419h272l453 -1419h-258zM588 1174l-89 -311q-60 -206 -91 -294h348q-6 14 -85 296t-83 309zM784 1475q-57 0 -97 42t-40 101q0 61 39 102.5t100 41.5q57 0 97 -42t40 -102q0 -57 -41 -100t-98 -43zM356 1475q-57 0 -97 42 t-40 101q0 61 39 102.5t98 41.5q57 0 97 -42t40 -102q0 -59 -40 -101t-97 -42z" />
<glyph unicode="&#xc5;" horiz-adv-x="1179" d="M924 0l-115 373h-459l-114 -373h-244l465 1419h272l453 -1419h-258zM588 1174l-89 -311q-60 -206 -91 -294h348q-6 14 -85 296t-83 309zM586 1465q-90 0 -154 61.5t-64 153.5q0 90 63.5 153.5t154.5 63.5q90 0 153.5 -63.5t63.5 -153.5q0 -88 -63.5 -151.5t-153.5 -63.5z M586 1801q-49 0 -84 -35t-35 -86q0 -47 34.5 -84t84.5 -37q49 0 83.5 34.5t34.5 86.5q0 47 -34.5 84t-83.5 37z" />
<glyph unicode="&#xc6;" horiz-adv-x="1859" d="M938 0v377h-434l-217 -377h-260l852 1415h843l-30 -192h-518v-385h434v-195h-432v-442h567v-201h-805zM936 1145l-322 -574h324v371q0 74 2 125t6 80z" />
<glyph unicode="&#xc7;" horiz-adv-x="1124" d="M688 -23h-16l-17 -55q74 -8 109 -50t35 -103q0 -72 -56.5 -123.5t-154.5 -51.5q-41 0 -88 15.5t-82 34.5l51 108q33 -14 58.5 -22.5t54.5 -8.5q25 0 44 15.5t19 36.5q0 51 -65 51q-16 0 -30.5 -3t-23.5 -7l-20 30l39 150q-217 57 -338 241.5t-121 454.5q0 252 87 417 t224.5 251t304.5 86q219 0 353 -111l-109 -155q-113 80 -241 79q-88 0 -158 -39.5t-134.5 -144t-64.5 -356.5q0 -246 55.5 -354.5t136.5 -153.5t179 -45q68 0 131 21.5t123 68.5l110 -152q-164 -125 -395 -125z" />
<glyph unicode="&#xc8;" horiz-adv-x="1077" d="M178 0v1417h787l-31 -192h-520v-387h436v-195h-432v-442h567v-201h-807zM721 1475l-450 209l102 190l418 -270z" />
<glyph unicode="&#xc9;" horiz-adv-x="1077" d="M178 0v1417h787l-31 -192h-520v-387h436v-195h-432v-442h567v-201h-807zM831 1684l-450 -209l-70 129l418 270z" />
<glyph unicode="&#xca;" horiz-adv-x="1077" d="M178 0v1417h787l-31 -192h-520v-387h436v-195h-432v-442h567v-201h-807zM832 1465l-283 168l-274 -168l-78 125l356 278l361 -278z" />
<glyph unicode="&#xcb;" horiz-adv-x="1077" d="M178 0v1417h787l-31 -192h-520v-387h436v-195h-432v-442h567v-201h-807zM772 1475q-57 0 -97 42t-40 101q0 61 39 102.5t100 41.5q57 0 97 -42t40 -102q0 -57 -41 -100t-98 -43zM344 1475q-57 0 -97 42t-40 101q0 61 39 102.5t98 41.5q57 0 97 -42t40 -102 q0 -59 -40 -101t-97 -42z" />
<glyph unicode="&#xcc;" horiz-adv-x="598" d="M438 1479l-450 209l102 190l418 -270zM178 0v1417h242v-1417h-242z" />
<glyph unicode="&#xcd;" horiz-adv-x="598" d="M596 1686l-451 -209l-69 129l418 270zM178 0v1417h242v-1417h-242z" />
<glyph unicode="&#xce;" horiz-adv-x="598" d="M575 1468l-282 168l-275 -168l-77 125l356 279l360 -279zM178 0v1417h242v-1417h-242z" />
<glyph unicode="&#xcf;" horiz-adv-x="598" d="M516 1477q-57 0 -97 42t-40 101q0 61 39 102t100 41q57 0 97 -42t40 -101q0 -57 -41 -100t-98 -43zM88 1477q-57 0 -97 42t-40 101q0 61 39 102t98 41q57 0 97 -42t40 -101t-40 -101t-97 -42zM178 0v1417h242v-1417h-242z" />
<glyph unicode="&#xd1;" horiz-adv-x="1316" d="M891 0l-318 666q-57 117 -108 236.5t-72 182.5l-6 -6q6 -66 10 -188.5t4 -204.5l9 -686h-232v1417h266l344 -692q43 -86 86.5 -196.5t59.5 -168.5l6 7q-6 63 -13 191t-7 212l-5 647h224v-1417h-248zM809 1706q43 0 70.5 17.5t66.5 58.5l74 -125q-55 -68 -109.5 -101.5 t-138.5 -33.5q-63 0 -136 42t-130 42q-43 0 -70 -17.5t-66 -58.5l-73 125q57 72 108 103.5t137 31.5q63 0 136.5 -42t130.5 -42z" />
<glyph unicode="&#xd2;" horiz-adv-x="1368" d="M94 709q0 346 161 537.5t431 191.5q289 0 440.5 -203t151.5 -528q0 -336 -153.5 -533t-428.5 -197q-295 0 -448.5 201t-153.5 531zM1010 692q0 279 -73 421t-253 142q-172 0 -250 -134t-78 -398q0 -283 79 -425t255 -142q162 0 241 126.5t79 409.5zM844 1475l-450 209 l102 190l418 -270z" />
<glyph unicode="&#xd3;" horiz-adv-x="1368" d="M94 709q0 346 161 537.5t431 191.5q289 0 440.5 -203t151.5 -528q0 -336 -153.5 -533t-428.5 -197q-295 0 -448.5 201t-153.5 531zM1010 692q0 279 -73 421t-253 142q-172 0 -250 -134t-78 -398q0 -283 79 -425t255 -142q162 0 241 126.5t79 409.5zM985 1688l-450 -209 l-70 129l418 270z" />
<glyph unicode="&#xd4;" horiz-adv-x="1368" d="M94 709q0 346 161 537.5t431 191.5q289 0 440.5 -203t151.5 -528q0 -336 -153.5 -533t-428.5 -197q-295 0 -448.5 201t-153.5 531zM1010 692q0 279 -73 421t-253 142q-172 0 -250 -134t-78 -398q0 -283 79 -425t255 -142q162 0 241 126.5t79 409.5zM948 1465l-283 168 l-274 -168l-78 125l356 278l361 -278z" />
<glyph unicode="&#xd5;" horiz-adv-x="1368" d="M94 709q0 346 161 537.5t431 191.5q289 0 440.5 -203t151.5 -528q0 -336 -153.5 -533t-428.5 -197q-295 0 -448.5 201t-153.5 531zM1010 692q0 279 -73 421t-253 142q-172 0 -250 -134t-78 -398q0 -283 79 -425t255 -142q162 0 241 126.5t79 409.5zM838 1706 q43 0 70.5 17.5t66.5 58.5l74 -125q-55 -68 -109.5 -101.5t-138.5 -33.5q-63 0 -136 42t-130 42q-43 0 -70 -17.5t-66 -58.5l-73 125q57 72 108 103.5t137 31.5q63 0 136.5 -42t130.5 -42z" />
<glyph unicode="&#xd6;" horiz-adv-x="1351" d="M94 709q0 346 161 537.5t431 191.5q289 0 440.5 -203t151.5 -528q0 -336 -153.5 -533t-428.5 -197q-295 0 -448.5 201t-153.5 531zM1010 692q0 279 -73 421t-253 142q-172 0 -250 -134t-78 -398q0 -283 79 -425t255 -142q162 0 241 126.5t79 409.5zM913 1475 q-57 0 -97 42t-40 101q0 61 39 102.5t100 41.5q57 0 97 -42t40 -102q0 -57 -41 -100t-98 -43zM485 1475q-57 0 -97 42t-40 101q0 61 39 102.5t98 41.5q57 0 97 -42t40 -102q0 -59 -40 -101t-97 -42z" />
<glyph unicode="&#xd8;" horiz-adv-x="1382" d="M1079 127q-88 -82 -175 -117t-206 -35q-184 0 -315 82l-137 -233l-127 74l153 256q-86 104 -130 245.5t-44 309.5q0 338 159 533.5t431 195.5q92 0 165 -20.5t142 -61.5l125 211l129 -74l-141 -233q98 -113 136 -242t38 -313q0 -197 -51.5 -340.5t-151.5 -237.5z M690 1255q-170 0 -250 -128t-80 -408q0 -207 43 -348l486 807q-43 39 -89.5 58t-109.5 19zM971 1032l-484 -807q25 -25 85.5 -48t121.5 -23q164 0 241 128t77 408q0 106 -10.5 189t-30.5 153z" />
<glyph unicode="&#xd9;" horiz-adv-x="1327" d="M662 -25q-262 0 -376 115t-114 305v1022h238v-952q0 -160 58 -224.5t194 -64.5q256 0 256 289v952h235v-1020q0 -197 -129 -309.5t-362 -112.5zM768 1475l-450 209l102 190l418 -270z" />
<glyph unicode="&#xda;" horiz-adv-x="1327" d="M662 -25q-262 0 -376 115t-114 305v1022h238v-952q0 -160 58 -224.5t194 -64.5q256 0 256 289v952h235v-1020q0 -197 -129 -309.5t-362 -112.5zM901 1684l-450 -209l-70 129l418 270z" />
<glyph unicode="&#xdb;" horiz-adv-x="1327" d="M662 -25q-262 0 -376 115t-114 305v1022h238v-952q0 -160 58 -224.5t194 -64.5q256 0 256 289v952h235v-1020q0 -197 -129 -309.5t-362 -112.5zM897 1465l-283 168l-274 -168l-78 125l356 278l361 -278z" />
<glyph unicode="&#xdc;" horiz-adv-x="1327" d="M662 -25q-262 0 -376 115t-114 305v1022h238v-952q0 -160 58 -224.5t194 -64.5q256 0 256 289v952h235v-1020q0 -197 -129 -309.5t-362 -112.5zM840 1475q-57 0 -97 42t-40 101q0 61 39 102.5t100 41.5q57 0 97 -42t40 -102q0 -57 -41 -100t-98 -43zM412 1475 q-57 0 -97 42t-40 101q0 61 39 102.5t98 41.5q57 0 97 -42t40 -102q0 -59 -40 -101t-97 -42z" />
<glyph unicode="&#xdd;" horiz-adv-x="1093" d="M999 1770l-450 -209l-70 129l418 270zM668 571v-571h-244v573l-447 844h285l213 -444q23 -47 42 -97l34 -85l33 76q16 40 45 102l217 448h274z" />
<glyph unicode="&#xdf;" horiz-adv-x="2140" d="M770 41q-59 -31 -137 -48.5t-160 -17.5q-209 0 -401 97l82 174q88 -43 165.5 -64.5t165.5 -21.5q86 0 154 31.5t68 105.5q0 53 -40 88t-132 57l-146 37q-160 39 -216 128t-56 177q0 147 117.5 240.5t306.5 93.5q111 0 218 -28.5t183 -81.5l-106 -158q-150 84 -289 84 q-82 0 -132 -33t-50 -90q0 -47 31.5 -74.5t115.5 -48.5l145 -35q72 -18 128.5 -45.5t116 -87t59.5 -180.5q0 -96 -49.5 -174t-141.5 -125zM1841 41q-59 -31 -137 -48.5t-160 -17.5q-209 0 -401 97l82 174q88 -43 165.5 -64.5t165.5 -21.5q86 0 154 31.5t68 105.5 q0 53 -40 88t-132 57l-146 37q-160 39 -216 128t-56 177q0 147 117.5 240.5t306.5 93.5q111 0 218 -28.5t183 -81.5l-106 -158q-150 84 -289 84q-82 0 -132 -33t-50 -90q0 -47 31.5 -74.5t115.5 -48.5l145 -35q72 -18 128.5 -45.5t116 -87t59.5 -180.5q0 -96 -49.5 -174 t-141.5 -125z" />
<glyph unicode="&#xe0;" horiz-adv-x="1069" d="M678 1147l-459 205l105 190l424 -266zM809 0l-94 260h-371l-92 -260h-236l404 1090h246l387 -1090h-244zM535 879q-8 -37 -54 -185l-80 -260h263l-91 298q-34 118 -38 147z" />
<glyph unicode="&#xe1;" horiz-adv-x="1069" d="M809 0l-94 260h-371l-92 -260h-236l404 1090h246l387 -1090h-244zM535 879q-8 -37 -54 -185l-80 -260h263l-91 298q-34 118 -38 147zM813 1356l-450 -209l-70 129l418 270z" />
<glyph unicode="&#xe2;" horiz-adv-x="1069" d="M809 0l-94 260h-371l-92 -260h-236l404 1090h246l387 -1090h-244zM535 879q-8 -37 -54 -185l-80 -260h263l-91 298q-34 118 -38 147zM817 1137l-283 168l-274 -168l-78 125l356 278l361 -278z" />
<glyph unicode="&#xe3;" horiz-adv-x="1069" d="M809 0l-94 260h-371l-92 -260h-236l404 1090h246l387 -1090h-244zM535 879q-8 -37 -54 -185l-80 -260h263l-91 298q-34 118 -38 147zM691 1378q43 0 70.5 17.5t66.5 58.5l74 -125q-55 -68 -109.5 -101.5t-138.5 -33.5q-63 0 -136 42t-130 42q-43 0 -70 -17.5t-66 -58.5 l-73 125q57 72 108 103.5t137 31.5q63 0 136.5 -42t130.5 -42z" />
<glyph unicode="&#xe4;" horiz-adv-x="1069" d="M758 1159q-57 0 -97 42t-40 99t39.5 97.5t99.5 40.5q57 0 97 -40t40 -98q0 -59 -41 -100t-98 -41zM330 1159q-57 0 -97 42t-40 99q0 55 40.5 96.5t98.5 41.5q57 0 96 -39t39 -99q0 -59 -39 -100t-98 -41zM809 0l-94 260h-371l-92 -260h-236l404 1090h246l387 -1090h-244z M535 879q-8 -37 -54 -185l-80 -260h263l-91 298q-34 118 -38 147z" />
<glyph unicode="&#xe5;" horiz-adv-x="1069" d="M809 0l-94 260h-371l-92 -260h-236l404 1090h246l387 -1090h-244zM535 879q-8 -37 -54 -185l-80 -260h263l-91 298q-34 118 -38 147zM541 1137q-90 0 -154 61.5t-64 153.5q0 90 63.5 153.5t154.5 63.5q90 0 153.5 -63.5t63.5 -153.5q0 -88 -63.5 -151.5t-153.5 -63.5z M541 1473q-49 0 -84 -35t-35 -86q0 -47 34.5 -84t84.5 -37q49 0 83.5 34.5t34.5 86.5q0 47 -34.5 84t-83.5 37z" />
<glyph unicode="&#xe6;" horiz-adv-x="1525" d="M725 0v260h-346l-164 -260h-254l705 1085h743l-33 -180h-426v-250h359v-178h-355v-291h471v-186h-700zM485 434h240l4 422q-12 -29 -112.5 -201t-131.5 -221z" />
<glyph unicode="&#xe7;" horiz-adv-x="1007" d="M653 -18l-16 -50q72 -8 106.5 -51t34.5 -104q0 -72 -58 -124t-155 -52q-41 0 -91 15t-83 34l53 114l49 -19q28 -11 66 -11q27 0 44.5 13t17.5 34q0 25 -16.5 37t-47.5 12q-37 -8 -53 -8l-25 31l39 139q-145 25 -254 114q-166 156 -166 416q0 203 81 331t199 191.5 t259 63.5q90 0 172 -22.5t135 -63.5l-106 -148q-94 59 -195 60q-70 0 -129 -32t-111.5 -100.5t-52.5 -246.5q0 -215 78 -308t223 -93q59 0 108.5 14t102.5 53l105 -137q-66 -51 -143 -76.5t-171 -25.5z" />
<glyph unicode="&#xe8;" horiz-adv-x="1001" d="M178 0v1085h684l-33 -178h-426v-250h357v-180h-354v-289h471v-188h-699zM659 1147l-450 209l102 190l418 -270z" />
<glyph unicode="&#xe9;" horiz-adv-x="1001" d="M178 0v1085h684l-33 -178h-426v-250h357v-180h-354v-289h471v-188h-699zM803 1356l-450 -209l-70 129l418 270z" />
<glyph unicode="&#xea;" horiz-adv-x="1001" d="M178 0v1085h684l-33 -178h-426v-250h357v-180h-354v-289h471v-188h-699zM813 1137l-283 168l-274 -168l-78 125l356 278l361 -278z" />
<glyph unicode="&#xeb;" horiz-adv-x="1001" d="M178 0v1085h684l-33 -178h-426v-250h357v-180h-354v-289h471v-188h-699zM752 1170q-57 0 -97 42t-40 101q0 61 39 102.5t100 41.5q57 0 97 -42t40 -102q0 -57 -41 -100t-98 -43zM324 1170q-57 0 -97 42t-40 101q0 61 39 102.5t98 41.5q57 0 97 -42t40 -102 q0 -59 -40 -101t-97 -42z" />
<glyph unicode="&#xec;" horiz-adv-x="589" d="M178 0v1085h234v-1085h-234zM426 1147l-450 209l102 190l418 -270z" />
<glyph unicode="&#xed;" horiz-adv-x="589" d="M178 0v1085h234v-1085h-234zM606 1356l-450 -209l-70 129l418 270z" />
<glyph unicode="&#xee;" horiz-adv-x="589" d="M178 0v1085h234v-1085h-234zM580 1137l-283 168l-274 -168l-78 125l356 278l361 -278z" />
<glyph unicode="&#xef;" horiz-adv-x="589" d="M178 0v1085h234v-1085h-234zM516 1147q-57 0 -97 42t-40 101q0 61 39 102.5t100 41.5q57 0 97 -42t40 -102q0 -57 -41 -100t-98 -43zM88 1147q-57 0 -97 42t-40 101q0 61 39 102.5t98 41.5q57 0 97 -42t40 -102q0 -59 -40 -101t-97 -42z" />
<glyph unicode="&#xf1;" horiz-adv-x="1189" d="M778 0l-264 502l-80 158q-39 81 -53 120l8 -305l8 -475h-219v1085h252l272 -491q37 -66 69 -135.5t48 -116.5q0 16 -8 131t-8 152l-4 460h213v-1085h-234zM734 1374q43 0 70.5 17.5t66.5 58.5l74 -125q-55 -68 -109.5 -101.5t-138.5 -33.5q-63 0 -136 42t-130 42 q-43 0 -70 -17.5t-66 -58.5l-73 125q57 72 108 103.5t137 31.5q63 0 136.5 -42t130.5 -42z" />
<glyph unicode="&#xf2;" horiz-adv-x="1239" d="M260 119q-156 156 -156 422q0 262 137.5 411.5t376.5 149.5q252 0 384.5 -152.5t132.5 -402.5q0 -252 -91.5 -365.5t-187.5 -155.5t-227 -42q-234 0 -369 135zM848 305q29 86 29 234q0 96 -8.5 153.5t-50.5 149.5t-206 92q-147 0 -201.5 -105.5t-54.5 -283.5 q0 -197 57.5 -297.5t209.5 -100.5q88 0 142 36t83 122zM692 1147l-450 209l102 190l418 -270z" />
<glyph unicode="&#xf3;" horiz-adv-x="1239" d="M260 119q-156 156 -156 422q0 262 137.5 411.5t376.5 149.5q252 0 384.5 -152.5t132.5 -402.5q0 -252 -91.5 -365.5t-187.5 -155.5t-227 -42q-234 0 -369 135zM848 305q29 86 29 234q0 96 -8.5 153.5t-50.5 149.5t-206 92q-147 0 -201.5 -105.5t-54.5 -283.5 q0 -197 57.5 -297.5t209.5 -100.5q88 0 142 36t83 122zM887 1356l-450 -209l-70 129l418 270z" />
<glyph unicode="&#xf4;" horiz-adv-x="1239" d="M260 119q-156 156 -156 422q0 262 137.5 411.5t376.5 149.5q252 0 384.5 -152.5t132.5 -402.5q0 -252 -91.5 -365.5t-187.5 -155.5t-227 -42q-234 0 -369 135zM848 305q29 86 29 234q0 96 -8.5 153.5t-50.5 149.5t-206 92q-147 0 -201.5 -105.5t-54.5 -283.5 q0 -197 57.5 -297.5t209.5 -100.5q88 0 142 36t83 122zM887 1137l-283 168l-274 -168l-78 125l356 278l361 -278z" />
<glyph unicode="&#xf5;" horiz-adv-x="1239" d="M260 119q-156 156 -156 422q0 262 137.5 411.5t376.5 149.5q252 0 384.5 -152.5t132.5 -402.5q0 -252 -91.5 -365.5t-187.5 -155.5t-227 -42q-234 0 -369 135zM848 305q29 86 29 234q0 96 -8.5 153.5t-50.5 149.5t-206 92q-147 0 -201.5 -105.5t-54.5 -283.5 q0 -197 57.5 -297.5t209.5 -100.5q88 0 142 36t83 122zM746 1378q43 0 70.5 17.5t66.5 58.5l74 -125q-55 -68 -109.5 -101.5t-138.5 -33.5q-63 0 -136 42t-130 42q-43 0 -70 -17.5t-66 -58.5l-73 125q57 72 108 103.5t137 31.5q63 0 136.5 -42t130.5 -42z" />
<glyph unicode="&#xf6;" horiz-adv-x="1239" d="M260 119q-156 156 -156 422q0 262 137.5 411.5t376.5 149.5q252 0 384.5 -152.5t132.5 -402.5q0 -252 -91.5 -365.5t-187.5 -155.5t-227 -42q-234 0 -369 135zM848 305q29 86 29 234q0 96 -8.5 153.5t-50.5 149.5t-206 92q-147 0 -201.5 -105.5t-54.5 -283.5 q0 -197 57.5 -297.5t209.5 -100.5q88 0 142 36t83 122zM823 1159q-57 0 -97 42t-40 101q0 61 39 102.5t100 41.5q57 0 97 -42t40 -102q0 -57 -41 -100t-98 -43zM395 1159q-57 0 -97 42t-40 101q0 61 39 102.5t98 41.5q57 0 97 -42t40 -102q0 -59 -40 -101t-97 -42z" />
<glyph unicode="&#xf7;" horiz-adv-x="2359" d="M799 909h-398v-254h322v-180h-322v-475h-225v1085h651zM1683 909h-397v-254h322v-180h-322v-475h-225v1085h651zM1948 0v1085h233v-1085h-233z" />
<glyph unicode="&#xf8;" horiz-adv-x="1239" d="M457 186q59 -39 153 -39q88 0 142.5 36t83 122t28.5 234q0 55 -3 106t-19 105zM764 883q-59 51 -164 51q-145 0 -200.5 -105.5t-55.5 -283.5q0 -145 31 -236zM999 938q123 -141 123 -391q0 -256 -91 -367.5t-187 -153.5t-228 -42q-152 0 -260 55l-129 -191l-116 72 l135 199q-154 158 -154 422q0 262 137.5 411.5t376.5 149.5q156 0 266 -62l123 183l119 -76l-131 -191z" />
<glyph unicode="&#xf9;" horiz-adv-x="1198" d="M934 86q-51 -49 -134 -77.5t-196 -28.5q-145 0 -240.5 41.5t-134.5 101t-49 110t-10 136.5v716h229v-682q0 -113 32 -176t169 -63q113 0 146.5 42t43 77.5t9.5 113.5v688h229v-708q0 -123 -19.5 -180.5t-74.5 -110.5zM704 1147l-450 209l102 190l418 -270z" />
<glyph unicode="&#xfa;" horiz-adv-x="1198" d="M934 86q-51 -49 -134 -77.5t-196 -28.5q-145 0 -240.5 41.5t-134.5 101t-49 110t-10 136.5v716h229v-682q0 -113 32 -176t169 -63q113 0 146.5 42t43 77.5t9.5 113.5v688h229v-708q0 -123 -19.5 -180.5t-74.5 -110.5zM889 1356l-450 -209l-70 129l418 270z" />
<glyph unicode="&#xfb;" horiz-adv-x="1198" d="M934 86q-51 -49 -134 -77.5t-196 -28.5q-145 0 -240.5 41.5t-134.5 101t-49 110t-10 136.5v716h229v-682q0 -113 32 -176t169 -63q113 0 146.5 42t43 77.5t9.5 113.5v688h229v-708q0 -123 -19.5 -180.5t-74.5 -110.5zM844 1137l-283 168l-274 -168l-78 125l356 278 l361 -278z" />
<glyph unicode="&#xfc;" horiz-adv-x="1198" d="M934 86q-51 -49 -134 -77.5t-196 -28.5q-145 0 -240.5 41.5t-134.5 101t-49 110t-10 136.5v716h229v-682q0 -113 32 -176t169 -63q113 0 146.5 42t43 77.5t9.5 113.5v688h229v-708q0 -123 -19.5 -180.5t-74.5 -110.5zM784 1159q-57 0 -97 42t-40 101q0 61 39 102.5 t100 41.5q57 0 97 -42t40 -102q0 -57 -41 -100t-98 -43zM356 1159q-57 0 -97 42t-40 101q0 61 39 102.5t98 41.5q57 0 97 -42t40 -102q0 -59 -40 -101t-97 -42z" />
<glyph unicode="&#xfd;" horiz-adv-x="1036" d="M968 1434l-450 -209l-70 129l418 270zM631 444v-444h-236v444l-379 641h273l168 -307l65 -131l29 71q10 26 33 64l170 303h266z" />
<glyph unicode="&#xff;" horiz-adv-x="1036" d="M745 1159q-57 0 -98 41t-41 100q0 57 42 97.5t100 40.5q57 0 97 -40t40 -98q0 -59 -41.5 -100t-98.5 -41zM317 1159q-57 0 -97 42t-40 99q0 55 41 96.5t98 41.5q55 0 95.5 -40t40.5 -98q0 -59 -39.5 -100t-98.5 -41zM631 444v-444h-236v444l-381 643h273l170 -309l24 -48 l41 -83l62 135l170 303h266z" />
<glyph unicode="&#x152;" horiz-adv-x="1738" d="M793 -2q-219 0 -316.5 22.5t-253 159.5t-155.5 531q0 160 37.5 281.5t117.5 225t201 152.5t285 49l127 -2h786l-31 -192h-516v-387h430v-195h-430v-442h582v-201zM850 1198q-57 8 -100 13.5t-68 5.5q-137 0 -209 -62.5t-100.5 -170t-28.5 -249.5q0 -274 81 -412.5 t251 -138.5q51 0 105 9l69 10v995z" />
<glyph unicode="&#x153;" horiz-adv-x="1548" d="M846 0h-111l-209 6q-156 14 -242.5 92t-133 177.5t-46.5 269.5q0 162 67 269.5t167 166.5q102 104 377 104h166h557l-33 -180h-426v-250h356v-178h-354v-291h471v-186h-606zM762 903l-127 2q-76 0 -131 -37q-66 -29 -100.5 -102.5t-34.5 -204.5q0 -111 13 -178.5 t70.5 -139t202.5 -71.5h107v731z" />
<glyph unicode="&#x178;" horiz-adv-x="1110" d="M788 1477q-59 0 -99 39.5t-40 99.5q0 57 42 97t100 40q55 0 95 -40t40 -97q0 -59 -40.5 -99t-97.5 -40zM360 1477q-57 0 -98 38.5t-41 100.5q0 55 41 96t98 41t97.5 -40t40.5 -97q0 -59 -40.5 -99t-97.5 -40zM680 569v-569h-244v573l-446 842h284l218 -452 q57 -117 71 -172l76 170l223 454h275z" />
<glyph unicode="&#x2c6;" horiz-adv-x="1363" d="M961 651l-283 586l-283 -586h-229l397 799h230l397 -799h-229z" />
<glyph unicode="&#x2c9;" horiz-adv-x="815" d="M100 1376v144h605v-144h-605z" />
<glyph unicode="&#x2da;" horiz-adv-x="645" d="M322 1137q-90 0 -154 61.5t-64 153.5q0 90 63.5 153.5t154.5 63.5q90 0 153.5 -63.5t63.5 -153.5q0 -88 -63.5 -151.5t-153.5 -63.5zM322 1473q-49 0 -84 -35t-35 -86q0 -47 34.5 -84t84.5 -37q49 0 83.5 34.5t34.5 86.5q0 47 -34.5 84t-83.5 37z" />
<glyph unicode="&#x2dc;" horiz-adv-x="460" d="M152 307q43 0 70.5 17.5t66.5 58.5l74 -125q-55 -68 -109.5 -101.5t-138.5 -33.5q-63 0 -136 42t-130 42q-43 0 -70 -17.5t-66 -58.5l-73 125q57 72 108 103.5t137 31.5q63 0 136.5 -42t130.5 -42z" />
<glyph unicode="&#x302;" horiz-adv-x="823" d="M682 1137l-283 168l-274 -168l-78 125l356 278l361 -278z" />
<glyph unicode="&#x303;" horiz-adv-x="792" d="M541 1378q43 0 70.5 17.5t66.5 58.5l74 -125q-55 -68 -109.5 -101.5t-138.5 -33.5q-63 0 -136 42t-130 42q-43 0 -70 -17.5t-66 -58.5l-73 125q57 72 108 103.5t137 31.5q63 0 136.5 -42t130.5 -42z" />
<glyph unicode="&#x2000;" horiz-adv-x="978" />
<glyph unicode="&#x2001;" horiz-adv-x="1959" />
<glyph unicode="&#x2002;" horiz-adv-x="978" />
<glyph unicode="&#x2003;" horiz-adv-x="1959" />
<glyph unicode="&#x2004;" horiz-adv-x="653" />
<glyph unicode="&#x2005;" horiz-adv-x="489" />
<glyph unicode="&#x2006;" horiz-adv-x="325" />
<glyph unicode="&#x2007;" horiz-adv-x="325" />
<glyph unicode="&#x2008;" horiz-adv-x="243" />
<glyph unicode="&#x2009;" horiz-adv-x="391" />
<glyph unicode="&#x200a;" horiz-adv-x="108" />
<glyph unicode="&#x2010;" horiz-adv-x="659" d="M109 453v209h448v-209h-448z" />
<glyph unicode="&#x2011;" horiz-adv-x="659" d="M109 453v209h448v-209h-448z" />
<glyph unicode="&#x2012;" horiz-adv-x="659" d="M109 453v209h448v-209h-448z" />
<glyph unicode="&#x2013;" horiz-adv-x="985" d="M-6 481v172h995v-172h-995z" />
<glyph unicode="&#x2014;" horiz-adv-x="1968" d="M254 481v172h1460v-172h-1460z" />
<glyph unicode="&#x2018;" horiz-adv-x="546" d="M307 1214q6 -23 39 -36q43 -12 68.5 -50t25.5 -88q0 -68 -46 -115.5t-115 -47.5q-80 0 -133.5 63.5t-53.5 159.5q0 125 77 223t193 139l89 -102q-68 -23 -106 -61t-38 -85z" />
<glyph unicode="&#x2019;" horiz-adv-x="540" d="M358 995q-74 -96 -190 -137l-88 103q143 51 143 145q-6 18 -39 37q-94 29 -94 137q0 68 46 116t116 48q82 0 134 -62.5t52 -160.5q0 -128 -80 -226z" />
<glyph unicode="&#x201a;" horiz-adv-x="546" d="M176 -295l-82 102q59 18 99 60.5t40 85.5q0 25 -66.5 51.5t-66.5 128.5q0 68 46.5 116t115.5 48q80 0 132 -62.5t52 -162.5q0 -129 -73.5 -225.5t-196.5 -141.5z" />
<glyph unicode="&#x201c;" horiz-adv-x="972" d="M743 1214q4 -16 41 -34q94 -31 95 -140q0 -68 -48.5 -115.5t-117.5 -47.5q-80 0 -132.5 64.5t-52.5 160.5q0 123 76 221t195 141l86 -104q-66 -23 -104 -61t-38 -85zM307 1214q6 -18 39 -34q94 -31 94 -140q0 -68 -48 -115.5t-116 -47.5q-80 0 -132 64.5t-52 160.5 q0 123 77 222t193 140l89 -104q-68 -23 -106 -61t-38 -85z" />
<glyph unicode="&#x201d;" horiz-adv-x="972" d="M799 993q-78 -94 -191 -135l-88 103q143 51 144 145q-6 18 -39 37q-94 31 -95 137q0 68 46.5 116t115.5 48q82 0 134.5 -62.5t52.5 -160.5q0 -126 -80 -228zM362 995q-72 -94 -192 -137l-86 103q143 53 143 145q-4 18 -41 37q-94 31 -94 137q0 70 47 117t117 47 q82 0 134 -62.5t52 -160.5q0 -124 -80 -226z" />
<glyph unicode="&#x201e;" horiz-adv-x="980" d="M174 -295l-82 102q59 18 99 60.5t40 85.5q0 25 -66.5 51.5t-66.5 128.5q0 68 46 116t116 48q80 0 132 -62.5t52 -162.5q0 -129 -73.5 -225.5t-196.5 -141.5zM614 -295l-82 102q59 18 99.5 60.5t40.5 85.5q0 25 -66.5 51.5t-66.5 128.5q0 68 46 116t115 48 q80 0 132.5 -62.5t52.5 -162.5q0 -129 -74 -225.5t-197 -141.5z" />
<glyph unicode="&#x2022;" horiz-adv-x="1024" d="M154 352v729l790 -364z" />
<glyph unicode="&#x2026;" horiz-adv-x="1478" d="M1237 -31q-68 0 -115 49.5t-47 118.5q0 68 47 115t113 47t114 -46t48 -116t-47 -119t-113 -49zM739 -31q-66 0 -112.5 49.5t-46.5 118.5q0 68 45 115t112 47q68 0 115 -47t47 -115q0 -70 -47 -119t-113 -49zM244 -31q-68 0 -115 49.5t-47 118.5q0 68 45 115t113 47 q66 0 114.5 -47t48.5 -115q0 -70 -46.5 -119t-112.5 -49z" />
<glyph unicode="&#x202f;" horiz-adv-x="391" />
<glyph unicode="&#x2039;" horiz-adv-x="647" d="M408 41l-312 461l312 461l153 -103l-237 -358l237 -359z" />
<glyph unicode="&#x203a;" horiz-adv-x="647" d="M248 41l-154 102l240 359l-240 358l154 103l313 -461z" />
<glyph unicode="&#x205f;" horiz-adv-x="489" />
<glyph unicode="&#x2122;" horiz-adv-x="2076" d="M1767 606v617h-10l-231 -617h-119l-229 613l-11 2v-615h-182v844h260l223 -594l222 594h260v-844h-183zM551 1284v-678h-182v678h-252v166h686v-166h-252z" />
<glyph unicode="&#xe000;" horiz-adv-x="1085" d="M0 1085h1085v-1085h-1085v1085z" />
<glyph unicode="&#xfb01;" horiz-adv-x="1474" d="M1063 0v1085h234v-1085h-234zM799 909h-398v-254h322v-180h-322v-475h-225v1085h651z" />
<glyph unicode="&#xfb02;" horiz-adv-x="1746" d="M1690 0h-627v1085h228v-901h442zM799 909h-398v-254h322v-180h-322v-475h-225v1085h651z" />
<glyph unicode="&#xfb03;" horiz-adv-x="2359" d="M1947 0v1085h234v-1085h-234zM1684 909h-398v-254h322v-180h-322v-475h-225v1085h651zM799 909h-398v-254h322v-180h-322v-475h-225v1085h651z" />
<glyph unicode="&#xfb04;" horiz-adv-x="2631" d="M2574 0h-627v1085h228v-901h442zM1684 909h-398v-254h322v-180h-322v-475h-225v1085h651zM799 909h-398v-254h322v-180h-322v-475h-225v1085h651z" />
</font>
</defs>
</svg>
